<?xml version="1.0" encoding="UTF-8" standalone="no"?>
<svg
   xmlns:dc="http://purl.org/dc/elements/1.1/"
   xmlns:cc="http://creativecommons.org/ns#"
   xmlns:rdf="http://www.w3.org/1999/02/22-rdf-syntax-ns#"
   xmlns:svg="http://www.w3.org/2000/svg"
   xmlns="http://www.w3.org/2000/svg"
   xmlns:sodipodi="http://sodipodi.sourceforge.net/DTD/sodipodi-0.dtd"
   xmlns:inkscape="http://www.inkscape.org/namespaces/inkscape"
   version="1.1"
   id="svg2"
   xml:space="preserve"
   width="595.26666"
   height="587.14667"
   viewBox="0 0 595.26666 587.14667"
   sodipodi:docname="2895257.eps"><metadata
     id="metadata8"><rdf:RDF><cc:Work
         rdf:about=""><dc:format>image/svg+xml</dc:format><dc:type
           rdf:resource="http://purl.org/dc/dcmitype/StillImage" /></cc:Work></rdf:RDF></metadata><defs
     id="defs6" /><sodipodi:namedview
     pagecolor="#ffffff"
     bordercolor="#666666"
     borderopacity="1"
     objecttolerance="10"
     gridtolerance="10"
     guidetolerance="10"
     inkscape:pageopacity="0"
     inkscape:pageshadow="2"
     inkscape:window-width="640"
     inkscape:window-height="480"
     id="namedview4" /><g
     id="g10"
     inkscape:groupmode="layer"
     inkscape:label="ink_ext_XXXXXX"
     transform="matrix(1.3333333,0,0,-1.3333333,0,587.14667)"><g
       id="g12"
       transform="scale(0.1)"><path
         d="M 3810.66,2035.72 C 4682.4,1570.02 4682.4,814.98 3810.65,349.281 2938.91,-116.418 1525.54,-116.418 653.801,349.27 c -871.739,465.699 -871.735,1220.75 0.008,1686.44 871.741,465.7 2285.111,465.7 3156.851,0.01"
         style="fill:#f3f2f1;fill-opacity:1;fill-rule:nonzero;stroke:none"
         id="path14" /><path
         d="m 1600.82,940.969 c 182.16,-105.168 182.16,-275.68 0,-380.848 -182.16,-105.172 -477.5,-105.172 -659.656,0 -182.16,105.16 -182.16,275.68 0,380.848 182.156,105.171 477.496,105.171 659.656,0"
         style="fill:#dadbd8;fill-opacity:1;fill-rule:nonzero;stroke:none"
         id="path16" /><path
         d="m 2564.56,1452.92 c 182.16,-105.17 182.16,-275.68 0,-380.85 -182.16,-105.172 -477.5,-105.172 -659.66,0 -182.16,105.17 -182.15,275.68 0,380.85 182.16,105.17 477.5,105.17 659.66,0"
         style="fill:#dadbd8;fill-opacity:1;fill-rule:nonzero;stroke:none"
         id="path18" /><path
         d="m 2993.45,1937.24 -67.36,38.49 c 0,0 -32.31,178.05 -8.15,331.11 33.97,215.19 180.49,289.42 233.71,268.03 53.21,-21.39 65.72,-85.14 -30.38,-209.48 -56.71,-73.36 -129.64,-228.44 -127.82,-428.15"
         style="fill:#26b6a6;fill-opacity:1;fill-rule:nonzero;stroke:none"
         id="path20" /><path
         d="m 2993.45,1937.24 -67.36,38.49 c 0,0 -17.1,94.25 -17.12,204.54 -0.01,41.31 2.38,84.87 8.97,126.57 30.26,191.72 149.88,271.55 213.24,271.55 7.76,0 14.66,-1.19 20.47,-3.52 24.99,-10.05 41.01,-29.44 41,-60.07 0,-34.58 -20.42,-83.48 -71.38,-149.41 -55.99,-72.43 -127.79,-224.52 -127.85,-420.56 0,-2.53 0.01,-5.05 0.03,-7.59"
         style="fill:#1db3a0;fill-opacity:1;fill-rule:nonzero;stroke:none"
         id="path22" /><path
         d="m 2969.03,2022.7 0.66,0.05 c 2.63,0.37 4.48,2.79 4.11,5.41 -27.85,201.47 53.18,422.19 144.2,511.15 1.9,1.85 1.94,4.89 0.08,6.79 -1.85,1.88 -4.9,1.93 -6.79,0.08 -92.69,-90.58 -175.26,-314.9 -147.01,-519.33 0.34,-2.4 2.4,-4.15 4.75,-4.15"
         style="fill:#ffffff;fill-opacity:1;fill-rule:nonzero;stroke:none"
         id="path24" /><path
         d="m 3180.36,1829.26 c 10.63,-6.11 32.58,7.25 40.98,12.89 14.39,9.66 26.04,23.32 33.78,38.78 9.02,18 11.28,37.27 8.46,57.18 -1.46,10.32 -4.35,20.38 -7.23,30.4 -2.83,9.83 -5.66,19.67 -8.48,29.51 -2.8,9.7 -5.61,19.74 -4.33,29.76 2.58,20.18 20.5,34.32 36.78,46.51 18.01,13.49 36.77,31.29 36.66,55.59 -0.08,18.74 -9.79,36.15 -21.4,50.87 -11.62,14.71 -25.41,27.71 -35.91,43.24 -7.55,11.19 -13.45,24.32 -12.22,37.76 0.76,8.35 4.23,16.21 8.22,23.58 8.57,15.82 19.9,30.31 25.81,47.31 5.92,17 5.08,38.14 -8.18,50.29 -10.89,9.99 -27.07,11.38 -41.81,10.41 -13.64,-0.9 -26.96,-7.06 -38.89,-13.69 -38.57,-21.45 -60.58,-67.13 -101.52,-83.63 -15.78,-6.37 -33.09,-7.77 -49.54,-12.11 -16.46,-4.35 -33.23,-12.76 -40.86,-27.98 -15.02,-30.01 12.86,-67 2.3,-98.86 -9.35,-28.18 -36.74,-38.97 -52.12,-64.38 -6.73,-11.11 -8.29,-23.96 -7.2,-36.91 1.83,-21.91 5.05,-37.99 15.57,-62.36 8.68,-20.14 34.22,-56.18 34.22,-56.18 0.64,-0.63 185.28,-107.04 186.91,-107.98"
         style="fill:#26b6a6;fill-opacity:1;fill-rule:nonzero;stroke:none"
         id="path26" /><path
         d="m 3071,1887.53 h 0.13 c 2.72,0.11 4.77,2.35 4.67,5 -7.93,190.69 81.91,401.21 147.25,462.37 1.93,1.81 2.03,4.85 0.23,6.79 -1.83,1.93 -4.86,2.03 -6.8,0.22 -66.65,-62.39 -158.32,-276.41 -150.28,-469.78 0.11,-2.58 2.23,-4.6 4.8,-4.6"
         style="fill:#ffffff;fill-opacity:1;fill-rule:nonzero;stroke:none"
         id="path28" /><path
         d="m 3099.57,2112.81 1.42,0.22 c 61.26,18.94 137.62,22.28 138.38,22.31 2.66,0.11 4.71,2.35 4.61,5 -0.12,2.64 -2.13,4.73 -5,4.6 -0.78,-0.04 -78.35,-3.42 -140.83,-22.74 -2.53,-0.78 -3.95,-3.47 -3.16,-6 0.63,-2.06 2.53,-3.39 4.58,-3.39"
         style="fill:#ffffff;fill-opacity:1;fill-rule:nonzero;stroke:none"
         id="path30" /><path
         d="m 3521.39,2599.37 -37.43,19 232.46,457.78 37.42,-19.01 -232.45,-457.77"
         style="fill:#17282f;fill-opacity:1;fill-rule:nonzero;stroke:none"
         id="path32" /><path
         d="m 3476.02,2724.63 -226.61,366.1 35.69,22.08 226.61,-366.09 -35.69,-22.09"
         style="fill:#17282f;fill-opacity:1;fill-rule:nonzero;stroke:none"
         id="path34" /><path
         d="M 3537.8,3156.35 V 1694.09 c 0,-5.19 -3.43,-10.38 -10.28,-14.34 -13.72,-7.92 -35.96,-7.92 -49.68,0 -6.86,3.96 -10.28,9.15 -10.28,14.34 v 1462.26 h 70.24"
         style="fill:#17282f;fill-opacity:1;fill-rule:nonzero;stroke:none"
         id="path36" /><path
         d="m 4371.91,3499.73 c 0,-282.98 -229.4,-512.39 -512.38,-512.39 -282.99,0 -512.39,229.41 -512.39,512.39 0,282.98 229.4,512.38 512.39,512.38 282.98,0 512.38,-229.4 512.38,-512.38"
         style="fill:#26b6a6;fill-opacity:1;fill-rule:nonzero;stroke:none"
         id="path38" /><path
         d="m 3859.53,2987.34 c 0.14,0 0.3,0 0.45,0 -0.16,0 -0.3,0 -0.45,0"
         style="fill:#0b7465;fill-opacity:1;fill-rule:nonzero;stroke:none"
         id="path40" /><path
         d="m 3860.08,2987.34 c 0.1,0 0.23,0 0.33,0 -0.1,0 -0.23,0 -0.33,0"
         style="fill:#0b7465;fill-opacity:1;fill-rule:nonzero;stroke:none"
         id="path42" /><path
         d="m 3860.58,2987.34 c 0.1,0 0.18,0 0.28,0.01 -0.1,-0.01 -0.17,-0.01 -0.28,-0.01"
         style="fill:#0b7465;fill-opacity:1;fill-rule:nonzero;stroke:none"
         id="path44" /><path
         d="m 3861.02,2987.35 c 0.1,0 0.18,0 0.28,0 -0.09,0 -0.19,0 -0.28,0"
         style="fill:#0b7465;fill-opacity:1;fill-rule:nonzero;stroke:none"
         id="path46" /><path
         d="m 3861.49,2987.35 c 0.09,0 0.16,0 0.25,0 -0.09,0 -0.16,0 -0.25,0"
         style="fill:#0b7465;fill-opacity:1;fill-rule:nonzero;stroke:none"
         id="path48" /><path
         d="m 3861.93,2987.35 c 0.1,0 0.17,0 0.27,0 -0.1,0 -0.17,0 -0.27,0"
         style="fill:#0b7465;fill-opacity:1;fill-rule:nonzero;stroke:none"
         id="path50" /><path
         d="m 3862.37,2987.35 c 0.1,0 0.22,0 0.31,0 -0.1,0 -0.21,0 -0.31,0"
         style="fill:#0b7465;fill-opacity:1;fill-rule:nonzero;stroke:none"
         id="path52" /><path
         d="m 3862.81,2987.35 c 0.12,0 0.26,0.01 0.39,0.01 -0.14,0 -0.25,-0.01 -0.39,-0.01"
         style="fill:#0b7465;fill-opacity:1;fill-rule:nonzero;stroke:none"
         id="path54" /><path
         d="m 3863.29,2987.36 c 0.14,0 0.27,0 0.42,0 -0.14,0 -0.28,0 -0.42,0"
         style="fill:#0b7465;fill-opacity:1;fill-rule:nonzero;stroke:none"
         id="path56" /><path
         d="m 3863.79,2987.36 c 0.11,0 0.24,0 0.35,0 -0.12,0 -0.23,0 -0.35,0"
         style="fill:#0b7465;fill-opacity:1;fill-rule:nonzero;stroke:none"
         id="path58" /><path
         d="m 3864.3,2987.37 c 0.1,0 0.19,0 0.29,0 -0.1,0 -0.18,0 -0.29,0"
         style="fill:#0b7465;fill-opacity:1;fill-rule:nonzero;stroke:none"
         id="path60" /><path
         d="m 3864.75,2987.37 c 0.09,0 0.18,0 0.27,0 -0.08,0 -0.19,0 -0.27,0"
         style="fill:#0b7465;fill-opacity:1;fill-rule:nonzero;stroke:none"
         id="path62" /><path
         d="m 3865.21,2987.37 c 0.09,0.01 0.18,0.01 0.27,0.01 -0.09,0 -0.19,0 -0.27,-0.01"
         style="fill:#0b7465;fill-opacity:1;fill-rule:nonzero;stroke:none"
         id="path64" /><path
         d="m 3865.64,2987.38 c 0.1,0 0.19,0 0.29,0 -0.1,0 -0.18,0 -0.29,0"
         style="fill:#0b7465;fill-opacity:1;fill-rule:nonzero;stroke:none"
         id="path66" /><path
         d="m 3866.09,2987.38 c 0.09,0.01 0.22,0.01 0.32,0.01 -0.11,0 -0.22,0 -0.32,-0.01"
         style="fill:#0b7465;fill-opacity:1;fill-rule:nonzero;stroke:none"
         id="path68" /><path
         d="m 3866.53,2987.39 c 0.1,0 0.19,0 0.28,0 -0.1,0 -0.18,0 -0.28,0"
         style="fill:#0b7465;fill-opacity:1;fill-rule:nonzero;stroke:none"
         id="path70" /><path
         d="m 3867.19,2987.4 c 0.08,0 0.14,0 0.21,0 -0.06,0 -0.14,0 -0.21,0"
         style="fill:#0b7465;fill-opacity:1;fill-rule:nonzero;stroke:none"
         id="path72" /><path
         d="m 3867.6,2987.41 c 0.07,0 0.17,0 0.25,0 -0.09,0 -0.17,0 -0.25,0"
         style="fill:#0b7465;fill-opacity:1;fill-rule:nonzero;stroke:none"
         id="path74" /><path
         d="m 3868.04,2987.41 c 0.08,0 0.17,0.01 0.25,0.01 -0.08,0 -0.17,-0.01 -0.25,-0.01"
         style="fill:#0b7465;fill-opacity:1;fill-rule:nonzero;stroke:none"
         id="path76" /><path
         d="m 3868.49,2987.42 c 0.07,0 0.16,0 0.24,0 -0.09,0 -0.16,0 -0.24,0"
         style="fill:#0b7465;fill-opacity:1;fill-rule:nonzero;stroke:none"
         id="path78" /><path
         d="m 3868.94,2987.43 c 0.08,0 0.16,0 0.24,0 -0.09,0 -0.15,0 -0.24,0"
         style="fill:#0b7465;fill-opacity:1;fill-rule:nonzero;stroke:none"
         id="path80" /><path
         d="m 3869.37,2987.44 c 0.08,0 0.17,0 0.25,0 -0.09,0 -0.17,0 -0.25,0"
         style="fill:#0b7465;fill-opacity:1;fill-rule:nonzero;stroke:none"
         id="path82" /><path
         d="m 3869.82,2987.44 c 0.08,0.01 0.15,0.01 0.23,0.01 -0.09,0 -0.14,0 -0.23,-0.01"
         style="fill:#0b7465;fill-opacity:1;fill-rule:nonzero;stroke:none"
         id="path84" /><path
         d="m 3870.26,2987.45 c 0.07,0.01 0.13,0.01 0.2,0.01 -0.05,0 -0.15,-0.01 -0.2,-0.01"
         style="fill:#0b7465;fill-opacity:1;fill-rule:nonzero;stroke:none"
         id="path86" /><path
         d="m 3870.88,2987.47 c 0.08,0 0.17,0 0.24,0 -0.06,0 -0.17,0 -0.24,0"
         style="fill:#0b7465;fill-opacity:1;fill-rule:nonzero;stroke:none"
         id="path88" /><path
         d="m 3871.3,2987.48 c 0.09,0 0.17,0 0.26,0 -0.09,0 -0.17,0 -0.26,0"
         style="fill:#0b7465;fill-opacity:1;fill-rule:nonzero;stroke:none"
         id="path90" /><path
         d="m 3871.77,2987.49 c 0.07,0 0.15,0 0.23,0 -0.07,0 -0.17,0 -0.23,0"
         style="fill:#0b7465;fill-opacity:1;fill-rule:nonzero;stroke:none"
         id="path92" /><path
         d="m 3872.21,2987.5 c 0.08,0 0.15,0 0.23,0 -0.08,0 -0.15,0 -0.23,0"
         style="fill:#0b7465;fill-opacity:1;fill-rule:nonzero;stroke:none"
         id="path94" /><path
         d="m 3872.63,2987.51 c 0.09,0 0.18,0 0.27,0 -0.09,0 -0.18,0 -0.27,0"
         style="fill:#0b7465;fill-opacity:1;fill-rule:nonzero;stroke:none"
         id="path96" /><path
         d="m 3873.08,2987.52 c 0.08,0 0.16,0 0.24,0.01 -0.09,-0.01 -0.16,-0.01 -0.24,-0.01"
         style="fill:#0b7465;fill-opacity:1;fill-rule:nonzero;stroke:none"
         id="path98" /><path
         d="m 3873.53,2987.53 c 0.07,0 0.14,0 0.21,0.01 -0.07,-0.01 -0.14,-0.01 -0.21,-0.01"
         style="fill:#0b7465;fill-opacity:1;fill-rule:nonzero;stroke:none"
         id="path100" /><path
         d="m 3873.97,2987.54 c 0.06,0 0.11,0.01 0.17,0.01 -0.05,0 -0.12,-0.01 -0.17,-0.01"
         style="fill:#0b7465;fill-opacity:1;fill-rule:nonzero;stroke:none"
         id="path102" /><path
         d="m 3874.76,2987.57 c 0.02,0 0.03,0 0.05,0 -0.01,0 -0.03,0 -0.05,0"
         style="fill:#0b7465;fill-opacity:1;fill-rule:nonzero;stroke:none"
         id="path104" /><path
         d="m 3875.1,2987.58 c 0.05,0 0.09,0 0.15,0 -0.05,0 -0.1,0 -0.15,0"
         style="fill:#0b7465;fill-opacity:1;fill-rule:nonzero;stroke:none"
         id="path106" /><path
         d="m 3875.5,2987.59 c 0.07,0 0.13,0 0.19,0 -0.06,0 -0.12,0 -0.19,0"
         style="fill:#0b7465;fill-opacity:1;fill-rule:nonzero;stroke:none"
         id="path108" /><path
         d="m 3875.92,2987.6 c 0.07,0 0.15,0.01 0.22,0.01 -0.07,0 -0.15,-0.01 -0.22,-0.01"
         style="fill:#0b7465;fill-opacity:1;fill-rule:nonzero;stroke:none"
         id="path110" /><path
         d="m 3876.36,2987.61 c 0.07,0.01 0.15,0.01 0.21,0.01 -0.06,0 -0.14,0 -0.21,-0.01"
         style="fill:#0b7465;fill-opacity:1;fill-rule:nonzero;stroke:none"
         id="path112" /><path
         d="m 3876.8,2987.63 c 0.07,0 0.14,0 0.22,0.01 -0.07,-0.01 -0.16,-0.01 -0.22,-0.01"
         style="fill:#0b7465;fill-opacity:1;fill-rule:nonzero;stroke:none"
         id="path114" /><path
         d="m 3877.23,2987.64 c 0.08,0.01 0.15,0.01 0.22,0.01 -0.06,0 -0.15,0 -0.22,-0.01"
         style="fill:#0b7465;fill-opacity:1;fill-rule:nonzero;stroke:none"
         id="path116" /><path
         d="m 3877.67,2987.66 c 0.07,0 0.12,0 0.19,0.01 -0.05,-0.01 -0.14,-0.01 -0.19,-0.01"
         style="fill:#0b7465;fill-opacity:1;fill-rule:nonzero;stroke:none"
         id="path118" /><path
         d="m 3878.39,2987.68 c 0.05,0.01 0.08,0.01 0.13,0.01 -0.04,0 -0.1,0 -0.13,-0.01"
         style="fill:#0b7465;fill-opacity:1;fill-rule:nonzero;stroke:none"
         id="path120" /><path
         d="m 3878.76,2987.7 c 0.07,0 0.13,0 0.2,0.01 -0.07,-0.01 -0.13,-0.01 -0.2,-0.01"
         style="fill:#0b7465;fill-opacity:1;fill-rule:nonzero;stroke:none"
         id="path122" /><path
         d="m 3879.18,2987.71 c 0.07,0.01 0.15,0.01 0.22,0.01 -0.07,0 -0.15,0 -0.22,-0.01"
         style="fill:#0b7465;fill-opacity:1;fill-rule:nonzero;stroke:none"
         id="path124" /><path
         d="m 3879.63,2987.73 c 0.06,0 0.13,0.01 0.2,0.01 -0.07,0 -0.14,-0.01 -0.2,-0.01"
         style="fill:#0b7465;fill-opacity:1;fill-rule:nonzero;stroke:none"
         id="path126" /><path
         d="m 3880.07,2987.75 c 0.06,0 0.12,0 0.19,0.01 -0.07,-0.01 -0.12,-0.01 -0.19,-0.01"
         style="fill:#0b7465;fill-opacity:1;fill-rule:nonzero;stroke:none"
         id="path128" /><path
         d="m 3880.51,2987.77 c 0.05,0 0.12,0 0.18,0 -0.06,0 -0.13,0 -0.18,0"
         style="fill:#0b7465;fill-opacity:1;fill-rule:nonzero;stroke:none"
         id="path130" /><path
         d="m 3880.93,2987.78 c 0.07,0.01 0.12,0.01 0.19,0.01 -0.07,0 -0.12,0 -0.19,-0.01"
         style="fill:#0b7465;fill-opacity:1;fill-rule:nonzero;stroke:none"
         id="path132" /><path
         d="m 3881.38,2987.8 c 0.02,0 0.03,0 0.05,0 -0.01,0 -0.03,0 -0.05,0"
         style="fill:#0b7465;fill-opacity:1;fill-rule:nonzero;stroke:none"
         id="path134" /><path
         d="m 3882.49,2987.85 c 0.06,0 0.1,0 0.15,0.01 -0.05,-0.01 -0.1,-0.01 -0.15,-0.01"
         style="fill:#0b7465;fill-opacity:1;fill-rule:nonzero;stroke:none"
         id="path136" /><path
         d="m 3882.91,2987.87 c 0.05,0 0.11,0 0.16,0 -0.05,0 -0.11,0 -0.16,0"
         style="fill:#0b7465;fill-opacity:1;fill-rule:nonzero;stroke:none"
         id="path138" /><path
         d="m 3883.33,2987.89 c 0.06,0 0.12,0 0.18,0 -0.05,0 -0.13,0 -0.18,0"
         style="fill:#0b7465;fill-opacity:1;fill-rule:nonzero;stroke:none"
         id="path140" /><path
         d="m 3883.76,2987.91 c 0.06,0 0.14,0 0.19,0.01 -0.06,-0.01 -0.12,-0.01 -0.19,-0.01"
         style="fill:#0b7465;fill-opacity:1;fill-rule:nonzero;stroke:none"
         id="path142" /><path
         d="m 3884.18,2987.93 c 0.08,0 0.14,0 0.22,0.01 -0.07,-0.01 -0.15,-0.01 -0.22,-0.01"
         style="fill:#0b7465;fill-opacity:1;fill-rule:nonzero;stroke:none"
         id="path144" /><path
         d="m 3884.63,2987.95 c 0.05,0 0.12,0 0.18,0.01 -0.07,-0.01 -0.12,-0.01 -0.18,-0.01"
         style="fill:#0b7465;fill-opacity:1;fill-rule:nonzero;stroke:none"
         id="path146" /><path
         d="m 3885.06,2987.97 c 0.04,0 0.09,0 0.13,0.01 -0.03,-0.01 -0.09,-0.01 -0.13,-0.01"
         style="fill:#0b7465;fill-opacity:1;fill-rule:nonzero;stroke:none"
         id="path148" /><path
         d="m 3885.78,2988 c 0.04,0.01 0.08,0.01 0.12,0.01 -0.03,0 -0.08,0 -0.12,-0.01"
         style="fill:#0b7465;fill-opacity:1;fill-rule:nonzero;stroke:none"
         id="path150" /><path
         d="m 3886.16,2988.02 c 0.06,0.01 0.11,0.01 0.17,0.01 -0.05,0 -0.11,0 -0.17,-0.01"
         style="fill:#0b7465;fill-opacity:1;fill-rule:nonzero;stroke:none"
         id="path152" /><path
         d="m 3886.6,2988.05 c 0.05,0 0.1,0 0.16,0 -0.05,0 -0.11,0 -0.16,0"
         style="fill:#0b7465;fill-opacity:1;fill-rule:nonzero;stroke:none"
         id="path154" /><path
         d="m 3887.04,2988.07 c 0.04,0 0.09,0 0.13,0.01 -0.05,-0.01 -0.07,-0.01 -0.13,-0.01"
         style="fill:#0b7465;fill-opacity:1;fill-rule:nonzero;stroke:none"
         id="path156" /><path
         d="m 3887.47,2988.09 c 0.05,0.01 0.08,0.01 0.13,0.01 -0.03,0 -0.09,-0.01 -0.13,-0.01"
         style="fill:#0b7465;fill-opacity:1;fill-rule:nonzero;stroke:none"
         id="path158" /><path
         d="m 3887.9,2988.12 c 0.04,0 0.07,0 0.11,0 -0.03,0 -0.07,0 -0.11,0"
         style="fill:#0b7465;fill-opacity:1;fill-rule:nonzero;stroke:none"
         id="path160" /><path
         d="m 3888.33,2988.14 c 0.03,0 0.04,0 0.07,0 -0.02,0 -0.05,0 -0.07,0"
         style="fill:#0b7465;fill-opacity:1;fill-rule:nonzero;stroke:none"
         id="path162" /><path
         d="m 3890.37,2988.26 c 0.01,0 0.02,0 0.03,0 h -0.03"
         style="fill:#0b7465;fill-opacity:1;fill-rule:nonzero;stroke:none"
         id="path164" /><path
         d="m 3890.75,2988.28 c 0.03,0 0.06,0 0.08,0 -0.03,0 -0.05,0 -0.08,0"
         style="fill:#0b7465;fill-opacity:1;fill-rule:nonzero;stroke:none"
         id="path166" /><path
         d="m 3891.17,2988.3 c 0.03,0.01 0.05,0.01 0.08,0.01 -0.03,0 -0.04,0 -0.08,-0.01"
         style="fill:#0b7465;fill-opacity:1;fill-rule:nonzero;stroke:none"
         id="path168" /><path
         d="m 3891.59,2988.33 c 0.02,0 0.05,0 0.07,0 -0.02,0 -0.05,0 -0.07,0"
         style="fill:#0b7465;fill-opacity:1;fill-rule:nonzero;stroke:none"
         id="path170" /><path
         d="m 3894.03,2988.49 c 0.02,0 0.03,0 0.05,0 -0.02,0 -0.04,0 -0.05,0"
         style="fill:#0b7465;fill-opacity:1;fill-rule:nonzero;stroke:none"
         id="path172" /><path
         d="m 3894.44,2988.51 c 0.02,0.01 0.03,0.01 0.05,0.01 -0.02,0 -0.03,0 -0.05,-0.01"
         style="fill:#0b7465;fill-opacity:1;fill-rule:nonzero;stroke:none"
         id="path174" /><path
         d="m 3894.85,2988.54 c 0.02,0 0.04,0 0.07,0.01 -0.03,-0.01 -0.04,-0.01 -0.07,-0.01"
         style="fill:#0b7465;fill-opacity:1;fill-rule:nonzero;stroke:none"
         id="path176" /><path
         d="m 3895.27,2988.57 c 0.02,0 0.03,0 0.05,0 -0.02,0 -0.03,0 -0.05,0"
         style="fill:#0b7465;fill-opacity:1;fill-rule:nonzero;stroke:none"
         id="path178" /><path
         d="m 3895.69,2988.6 c 0.01,0 0.02,0 0.03,0 h -0.03"
         style="fill:#0b7465;fill-opacity:1;fill-rule:nonzero;stroke:none"
         id="path180" /><path
         d="m 3897.71,2988.74 c 0.02,0.01 0.01,0.01 0.03,0.01 l -0.03,-0.01"
         style="fill:#0b7465;fill-opacity:1;fill-rule:nonzero;stroke:none"
         id="path182" /><path
         d="m 3898.11,2988.77 c 0.02,0.01 0.03,0.01 0.05,0.01 -0.02,0 -0.04,0 -0.05,-0.01"
         style="fill:#0b7465;fill-opacity:1;fill-rule:nonzero;stroke:none"
         id="path184" /><path
         d="m 3898.52,2988.8 c 0.02,0.01 0.03,0.01 0.05,0.01 -0.01,0 -0.03,0 -0.05,-0.01"
         style="fill:#0b7465;fill-opacity:1;fill-rule:nonzero;stroke:none"
         id="path186" /><path
         d="m 3898.92,2988.84 c 0.02,0 0.05,0 0.07,0 -0.01,0 -0.05,0 -0.07,0"
         style="fill:#0b7465;fill-opacity:1;fill-rule:nonzero;stroke:none"
         id="path188" /><path
         d="m 3902.19,2989.09 c 0.01,0.01 0.01,0.01 0.02,0.01 l -0.02,-0.01"
         style="fill:#0b7465;fill-opacity:1;fill-rule:nonzero;stroke:none"
         id="path190" /><path
         d="m 4080.23,3037.18 c 0.01,0.01 0.04,0.02 0.06,0.03 -0.02,-0.01 -0.05,-0.02 -0.06,-0.03"
         style="fill:#0b7465;fill-opacity:1;fill-rule:nonzero;stroke:none"
         id="path192" /><path
         d="m 4080.57,3037.35 c 0.03,0.01 0.05,0.02 0.08,0.03 -0.03,-0.01 -0.05,-0.02 -0.08,-0.03"
         style="fill:#0b7465;fill-opacity:1;fill-rule:nonzero;stroke:none"
         id="path194" /><path
         d="m 4080.92,3037.51 c 0.04,0.02 0.07,0.04 0.1,0.05 -0.03,-0.01 -0.07,-0.03 -0.1,-0.05"
         style="fill:#0b7465;fill-opacity:1;fill-rule:nonzero;stroke:none"
         id="path196" /><path
         d="m 4081.29,3037.69 c 0.03,0.01 0.05,0.02 0.08,0.04 -0.02,-0.01 -0.06,-0.03 -0.08,-0.04"
         style="fill:#0b7465;fill-opacity:1;fill-rule:nonzero;stroke:none"
         id="path198" /><path
         d="m 4081.65,3037.86 c 0.03,0.02 0.07,0.04 0.11,0.06 -0.03,-0.02 -0.08,-0.04 -0.11,-0.06"
         style="fill:#0b7465;fill-opacity:1;fill-rule:nonzero;stroke:none"
         id="path200" /><path
         d="m 4082.6,3038.32 c 0.04,0.02 0.08,0.04 0.12,0.06 -0.04,-0.02 -0.08,-0.04 -0.12,-0.06"
         style="fill:#0b7465;fill-opacity:1;fill-rule:nonzero;stroke:none"
         id="path202" /><path
         d="m 4082.93,3038.48 c 0.05,0.03 0.11,0.06 0.17,0.08 -0.06,-0.02 -0.11,-0.05 -0.17,-0.08"
         style="fill:#0b7465;fill-opacity:1;fill-rule:nonzero;stroke:none"
         id="path204" /><path
         d="m 4083.29,3038.66 c 0.06,0.03 0.12,0.06 0.18,0.09 -0.06,-0.03 -0.12,-0.06 -0.18,-0.09"
         style="fill:#0b7465;fill-opacity:1;fill-rule:nonzero;stroke:none"
         id="path206" /><path
         d="m 4083.65,3038.83 c 0.07,0.04 0.14,0.07 0.21,0.11 -0.07,-0.04 -0.14,-0.07 -0.21,-0.11"
         style="fill:#0b7465;fill-opacity:1;fill-rule:nonzero;stroke:none"
         id="path208" /><path
         d="m 4084.01,3039.01 c 0.09,0.04 0.16,0.08 0.24,0.12 -0.07,-0.04 -0.16,-0.08 -0.24,-0.12"
         style="fill:#0b7465;fill-opacity:1;fill-rule:nonzero;stroke:none"
         id="path210" /><path
         d="m 4084.38,3039.19 c 0.08,0.04 0.17,0.08 0.25,0.12 -0.09,-0.04 -0.17,-0.08 -0.25,-0.12"
         style="fill:#0b7465;fill-opacity:1;fill-rule:nonzero;stroke:none"
         id="path212" /><path
         d="m 4084.77,3039.38 c 0.09,0.05 0.19,0.09 0.29,0.14 -0.1,-0.05 -0.19,-0.09 -0.29,-0.14"
         style="fill:#0b7465;fill-opacity:1;fill-rule:nonzero;stroke:none"
         id="path214" /><path
         d="m 4085.12,3039.55 c 0.39,0.19 0.76,0.38 1.15,0.57 -0.39,-0.2 -0.75,-0.37 -1.15,-0.57"
         style="fill:#0b7465;fill-opacity:1;fill-rule:nonzero;stroke:none"
         id="path216" /><path
         d="m 4086.34,3040.15 c 0.11,0.05 0.22,0.11 0.33,0.17 -0.12,-0.06 -0.21,-0.11 -0.33,-0.17"
         style="fill:#0b7465;fill-opacity:1;fill-rule:nonzero;stroke:none"
         id="path218" /><path
         d="m 4086.7,3040.33 c 0.13,0.06 0.24,0.12 0.37,0.18 -0.12,-0.06 -0.25,-0.12 -0.37,-0.18"
         style="fill:#0b7465;fill-opacity:1;fill-rule:nonzero;stroke:none"
         id="path220" /><path
         d="m 4087.08,3040.52 c 0.13,0.06 0.24,0.12 0.37,0.19 -0.13,-0.07 -0.24,-0.13 -0.37,-0.19"
         style="fill:#0b7465;fill-opacity:1;fill-rule:nonzero;stroke:none"
         id="path222" /><path
         d="m 4087.47,3040.71 c 0.12,0.06 0.25,0.13 0.37,0.19 -0.13,-0.07 -0.24,-0.12 -0.37,-0.19"
         style="fill:#0b7465;fill-opacity:1;fill-rule:nonzero;stroke:none"
         id="path224" /><path
         d="m 4087.86,3040.91 c 64.58,32.2 121.4,77.63 166.92,132.75 -12.65,-3.69 -25.41,-5.47 -38.13,-5.47 -77.89,0 -154.26,66.61 -193.16,168.31 87.62,112.1 139.82,253.18 139.82,406.48 v 0 0 c 0,65.36 -9.5,128.51 -27.18,188.13 141.82,-91.13 235.78,-250.28 235.78,-431.38 0,-200.94 -115.66,-374.86 -284.05,-458.82"
         style="fill:#0b7465;fill-opacity:1;fill-rule:nonzero;stroke:none"
         id="path226" /><path
         d="m 3859.98,2987.34 c 0.03,0 0.06,0 0.1,0 -0.04,0 -0.06,0 -0.1,0 m 0.43,0 c 0.05,0 0.12,0 0.17,0 -0.05,0 -0.11,0 -0.17,0 m 0.45,0.01 c 0.05,0 0.11,0 0.16,0 -0.04,0 -0.11,0 -0.16,0 m 0.44,0 c 0.07,0 0.12,0 0.19,0 -0.06,0 -0.13,0 -0.19,0 m 0.44,0 c 0.05,0 0.14,0 0.19,0 -0.06,0 -0.13,0 -0.19,0 m 0.46,0 c 0.05,0 0.12,0 0.17,0 -0.06,0 -0.11,0 -0.17,0 m 0.48,0 c 0.04,0 0.09,0 0.13,0 -0.05,0 -0.08,0 -0.13,0 m 0.52,0.01 c 0.03,0 0.05,0 0.09,0 -0.03,0 -0.06,0 -0.09,0 m 0.51,0 c 0.01,0 0.07,0 0.08,0 -0.03,0 -0.05,0 -0.08,0 m 0.43,0 c 0.05,0 0.11,0 0.16,0.01 -0.06,-0.01 -0.11,-0.01 -0.16,-0.01 m 0.45,0.01 c 0.05,0 0.1,0 0.16,0 -0.05,0 -0.11,0 -0.16,0 m 0.43,0 c 0.07,0 0.12,0 0.19,0 -0.06,0 -0.13,0 -0.19,0 m 0.46,0.01 c 0.05,0 0.11,0 0.16,0 -0.05,0 -0.11,0 -0.16,0 m 0.45,0 c 0.05,0 0.11,0 0.16,0 -0.06,0 -0.1,0 -0.16,0 m 0.48,0.01 c 0.03,0 0.09,0 0.12,0 -0.05,0 -0.08,0 -0.12,0 m 0.4,0 c 0.12,0.01 0.26,0.01 0.38,0.01 -0.12,0 -0.26,0 -0.38,-0.01 m 0.59,0.01 c 0.07,0 0.13,0 0.2,0.01 -0.07,-0.01 -0.13,-0.01 -0.2,-0.01 m 0.45,0.01 c 0.07,0 0.12,0 0.19,0 -0.07,0 -0.12,0 -0.19,0 m 0.44,0.01 c 0.06,0 0.15,0 0.2,0 -0.06,0 -0.14,0 -0.2,0 m 0.44,0 c 0.07,0.01 0.14,0.01 0.21,0.01 -0.08,0 -0.14,0 -0.21,-0.01 m 0.45,0.01 c 0.05,0 0.14,0.01 0.19,0.01 -0.07,-0.01 -0.13,-0.01 -0.19,-0.01 m 0.44,0.01 c 0.07,0 0.13,0 0.2,0 -0.07,0 -0.13,0 -0.2,0 m 0.43,0.01 c 0.07,0 0.14,0 0.21,0 -0.07,0 -0.14,0 -0.21,0 m 0.41,0.01 c 0.15,0 0.27,0 0.42,0.01 -0.14,-0.01 -0.28,-0.01 -0.42,-0.01 m 0.66,0.01 c 0.07,0 0.11,0 0.18,0.01 -0.06,-0.01 -0.12,-0.01 -0.18,-0.01 m 0.44,0.01 c 0.07,0 0.14,0.01 0.21,0.01 -0.07,0 -0.14,-0.01 -0.21,-0.01 m 0.44,0.01 c 0.07,0 0.14,0.01 0.21,0.01 -0.07,0 -0.14,-0.01 -0.21,-0.01 m 0.44,0.01 c 0.07,0 0.13,0.01 0.19,0.01 -0.05,0 -0.13,-0.01 -0.19,-0.01 m 0.46,0.01 c 0.05,0.01 0.13,0.01 0.18,0.01 -0.07,0 -0.11,0 -0.18,-0.01 m 0.42,0.02 c 0.07,0 0.15,0 0.21,0 -0.06,0 -0.14,0 -0.21,0 m 0.42,0.01 c 0.08,0 0.15,0 0.23,0 -0.07,0 -0.15,0 -0.23,0 m 0.4,0.01 c 0.21,0 0.42,0.01 0.62,0.02 -0.21,-0.01 -0.41,-0.02 -0.62,-0.02 m 0.67,0.02 c 0.11,0 0.18,0 0.29,0.01 -0.09,-0.01 -0.2,-0.01 -0.29,-0.01 m 0.44,0.01 c 0.07,0 0.18,0.01 0.25,0.01 -0.07,0 -0.17,-0.01 -0.25,-0.01 m 0.44,0.01 c 0.09,0.01 0.14,0.01 0.23,0.01 -0.08,0 -0.15,0 -0.23,-0.01 m 0.45,0.02 c 0.07,0 0.15,0 0.22,0 -0.08,0 -0.15,0 -0.22,0 m 0.43,0.01 c 0.09,0 0.14,0.01 0.23,0.01 -0.08,0 -0.15,-0.01 -0.23,-0.01 m 0.45,0.02 c 0.06,0 0.15,0 0.21,0 -0.06,0 -0.15,0 -0.21,0 m 0.43,0.01 c 0.09,0 0.14,0.01 0.22,0.01 -0.07,0 -0.15,-0.01 -0.22,-0.01 m 0.41,0.02 c 0.19,0 0.34,0.01 0.53,0.01 -0.17,0 -0.36,-0.01 -0.53,-0.01 m 0.66,0.02 c 0.08,0 0.16,0 0.24,0.01 -0.08,0 -0.16,-0.01 -0.24,-0.01 m 0.44,0.02 c 0.07,0 0.15,0 0.22,0 -0.08,0 -0.15,0 -0.22,0 m 0.44,0.01 c 0.08,0 0.14,0.01 0.23,0.01 -0.08,0 -0.15,-0.01 -0.23,-0.01 m 0.43,0.02 c 0.06,0 0.17,0 0.24,0.01 -0.08,-0.01 -0.17,-0.01 -0.24,-0.01 m 0.43,0.02 c 0.08,0 0.16,0 0.25,0.01 -0.09,-0.01 -0.17,-0.01 -0.25,-0.01 m 0.43,0.01 c 0.08,0.01 0.16,0.01 0.24,0.01 -0.07,0 -0.17,0 -0.24,-0.01 m 0.43,0.02 c 0.08,0 0.18,0.01 0.26,0.01 -0.09,0 -0.17,-0.01 -0.26,-0.01 m 0.31,0.01 c 0.36,0.02 0.7,0.03 1.06,0.05 -0.34,-0.02 -0.71,-0.03 -1.06,-0.05 m 1.21,0.06 c 0.09,0 0.18,0 0.27,0.01 -0.09,-0.01 -0.18,-0.01 -0.27,-0.01 m 0.43,0.01 c 0.09,0.01 0.18,0.01 0.26,0.02 -0.08,-0.01 -0.17,-0.01 -0.26,-0.02 m 0.44,0.02 c 0.09,0.01 0.17,0.01 0.25,0.02 -0.08,-0.01 -0.16,-0.01 -0.25,-0.02 m 0.44,0.03 c 0.09,0 0.15,0 0.23,0.01 -0.08,-0.01 -0.15,-0.01 -0.23,-0.01 m 0.45,0.02 c 0.07,0 0.16,0 0.23,0.01 -0.08,-0.01 -0.16,-0.01 -0.23,-0.01 m 0.41,0.02 c 0.08,0 0.17,0 0.25,0.01 -0.08,-0.01 -0.17,-0.01 -0.25,-0.01 m 0.38,0.02 c 0.21,0.01 0.39,0.01 0.59,0.02 -0.2,-0.01 -0.39,-0.02 -0.59,-0.02 m 0.71,0.03 c 0.09,0 0.18,0.01 0.26,0.01 -0.08,0 -0.17,-0.01 -0.26,-0.01 m 0.43,0.02 c 0.1,0.01 0.17,0.01 0.27,0.02 -0.09,-0.01 -0.19,-0.01 -0.27,-0.02 m 0.43,0.02 c 0.08,0.01 0.2,0.02 0.28,0.02 -0.09,-0.01 -0.19,-0.01 -0.28,-0.02 m 0.41,0.03 c 0.1,0 0.2,0.01 0.3,0.01 -0.09,0 -0.2,-0.01 -0.3,-0.01 m 0.43,0.02 c 0.1,0.01 0.2,0.01 0.3,0.02 -0.09,-0.01 -0.2,-0.02 -0.3,-0.02 m 0.41,0.02 c 0.12,0.01 0.21,0.01 0.32,0.02 -0.1,-0.01 -0.22,-0.01 -0.32,-0.02 m 0.39,0.02 c 0.66,0.04 1.31,0.08 1.97,0.12 -0.65,-0.04 -1.32,-0.08 -1.97,-0.12 m 2,0.12 c 0.12,0.01 0.23,0.01 0.35,0.02 -0.12,-0.01 -0.22,-0.01 -0.35,-0.02 m 0.43,0.02 c 0.11,0.01 0.24,0.02 0.34,0.02 -0.1,0 -0.23,-0.01 -0.34,-0.02 m 0.42,0.03 c 0.12,0.01 0.22,0.01 0.34,0.02 -0.11,-0.01 -0.23,-0.01 -0.34,-0.02 m 0.41,0.02 c 0.12,0.01 0.24,0.02 0.36,0.03 -0.12,-0.01 -0.24,-0.02 -0.36,-0.03 m 0.38,0.03 c 0.66,0.04 1.33,0.08 1.99,0.13 -0.67,-0.05 -1.32,-0.09 -1.99,-0.13 m 2.04,0.13 c 0.12,0.01 0.24,0.02 0.36,0.02 -0.11,0 -0.25,-0.01 -0.36,-0.02 m 0.41,0.03 c 0.12,0.01 0.24,0.01 0.36,0.02 -0.12,-0.01 -0.24,-0.01 -0.36,-0.02 m 0.43,0.03 c 0.12,0 0.23,0.01 0.35,0.02 -0.11,-0.01 -0.24,-0.02 -0.35,-0.02 m 0.4,0.02 c 0.12,0.01 0.25,0.02 0.37,0.03 -0.13,-0.01 -0.25,-0.02 -0.37,-0.03 m 0.4,0.03 c 0.68,0.05 1.31,0.09 1.99,0.14 -0.66,-0.04 -1.33,-0.09 -1.99,-0.14 m 2.02,0.15 c 0.12,0.01 0.25,0.02 0.37,0.02 -0.12,0 -0.26,-0.01 -0.37,-0.02 m 0.42,0.03 c 0.13,0.01 0.22,0.01 0.36,0.02 -0.13,0 -0.24,-0.01 -0.36,-0.02 m 0.41,0.03 c 0.12,0.01 0.24,0.02 0.35,0.03 -0.11,-0.01 -0.23,-0.02 -0.35,-0.03 m 0.42,0.03 c 1.07,0.08 2.14,0.17 3.2,0.25 -1.06,-0.08 -2.13,-0.17 -3.2,-0.25 m 3.22,0.26 c 63.3,5.22 123.33,21.94 178.02,48.08 -54.68,-26.14 -114.72,-42.86 -178.02,-48.08 m 178.08,48.11 c 0.1,0.05 0.18,0.09 0.28,0.14 -0.09,-0.05 -0.19,-0.09 -0.28,-0.14 m 0.36,0.17 c 0.08,0.04 0.18,0.09 0.27,0.13 -0.09,-0.04 -0.18,-0.09 -0.27,-0.13 m 0.37,0.18 c 0.11,0.05 0.17,0.08 0.27,0.13 -0.09,-0.04 -0.18,-0.08 -0.27,-0.13 m 0.35,0.17 c 0.1,0.05 0.17,0.08 0.28,0.13 -0.1,-0.05 -0.19,-0.09 -0.28,-0.13 m 0.39,0.19 c 0.27,0.13 0.56,0.27 0.84,0.4 -0.28,-0.13 -0.56,-0.27 -0.84,-0.4 m 0.96,0.46 c 0.07,0.04 0.13,0.07 0.21,0.1 -0.08,-0.03 -0.13,-0.06 -0.21,-0.1 m 0.38,0.18 c 0.06,0.03 0.14,0.07 0.19,0.1 -0.06,-0.03 -0.13,-0.06 -0.19,-0.1 m 0.37,0.19 c 0.06,0.02 0.12,0.05 0.18,0.08 -0.06,-0.03 -0.12,-0.06 -0.18,-0.08 m 0.39,0.19 c 0.06,0.02 0.1,0.04 0.15,0.07 -0.05,-0.02 -0.1,-0.05 -0.15,-0.07 m 0.39,0.19 c 0.04,0.02 0.08,0.04 0.13,0.06 -0.04,-0.02 -0.09,-0.04 -0.13,-0.06 m 0.38,0.18 c 0.04,0.02 0.09,0.05 0.14,0.07 -0.05,-0.03 -0.09,-0.05 -0.14,-0.07 m 0.43,0.21 c 0.01,0.01 0.05,0.03 0.06,0.03 -0.01,0 -0.05,-0.02 -0.06,-0.03 m 1.21,0.6 c 0.01,0 0.06,0.03 0.07,0.03 -0.02,-0.01 -0.05,-0.02 -0.07,-0.03 m 0.4,0.2 c 0.01,0 0.02,0.01 0.03,0.01 -0.01,-0.01 -0.02,-0.01 -0.03,-0.01 m 0.4,0.19 0.01,0.01 -0.01,-0.01 m 0.38,0.2 h 0.02 -0.02 m 0.39,0.19 0.02,0.01 c -0.01,-0.01 -0.01,-0.01 -0.02,-0.01"
         style="fill:#a7a9a8;fill-opacity:1;fill-rule:nonzero;stroke:none"
         id="path228" /><path
         d="m 3859.53,2987.34 c -45.77,0 -90.14,6 -132.37,17.26 -13.78,3.68 -27.33,7.91 -40.63,12.68 -45.91,16.47 -88.79,39.3 -127.57,67.43 188.49,15.9 354.45,110.96 464.53,251.79 38.9,-101.7 115.27,-168.31 193.16,-168.31 12.72,0 25.48,1.78 38.13,5.47 -45.52,-55.12 -102.34,-100.55 -166.92,-132.75 l -0.02,-0.01 c -0.12,-0.06 -0.25,-0.13 -0.37,-0.19 h -0.02 c -0.13,-0.07 -0.24,-0.13 -0.37,-0.19 l -0.01,-0.01 c -0.13,-0.06 -0.24,-0.12 -0.37,-0.18 -0.01,0 -0.02,-0.01 -0.03,-0.01 -0.11,-0.06 -0.22,-0.12 -0.33,-0.17 -0.01,0 -0.06,-0.03 -0.07,-0.03 -0.39,-0.19 -0.76,-0.38 -1.15,-0.57 -0.01,0 -0.05,-0.02 -0.06,-0.03 -0.1,-0.05 -0.2,-0.09 -0.29,-0.14 -0.05,-0.02 -0.1,-0.05 -0.14,-0.07 -0.08,-0.04 -0.17,-0.08 -0.25,-0.12 -0.05,-0.02 -0.09,-0.04 -0.13,-0.06 -0.08,-0.04 -0.15,-0.08 -0.24,-0.12 -0.05,-0.03 -0.09,-0.05 -0.15,-0.07 -0.07,-0.04 -0.14,-0.07 -0.21,-0.11 -0.06,-0.03 -0.12,-0.06 -0.18,-0.08 -0.06,-0.03 -0.12,-0.06 -0.18,-0.09 -0.05,-0.03 -0.13,-0.07 -0.19,-0.1 -0.06,-0.02 -0.12,-0.05 -0.17,-0.08 -0.08,-0.03 -0.14,-0.06 -0.21,-0.1 -0.04,-0.02 -0.08,-0.04 -0.12,-0.06 -0.28,-0.13 -0.57,-0.27 -0.84,-0.4 -0.04,-0.02 -0.08,-0.04 -0.11,-0.06 -0.11,-0.05 -0.18,-0.08 -0.28,-0.13 -0.03,-0.02 -0.05,-0.03 -0.08,-0.04 -0.1,-0.05 -0.16,-0.08 -0.27,-0.13 -0.03,-0.01 -0.06,-0.03 -0.1,-0.05 -0.09,-0.04 -0.19,-0.09 -0.27,-0.13 -0.03,-0.01 -0.05,-0.02 -0.08,-0.03 -0.1,-0.05 -0.18,-0.09 -0.28,-0.14 -0.02,-0.01 -0.05,-0.02 -0.06,-0.03 -54.69,-26.14 -114.72,-42.86 -178.02,-48.08 -0.01,0 -0.01,0 -0.02,-0.01 -1.06,-0.08 -2.13,-0.17 -3.2,-0.25 -0.02,0 -0.05,0 -0.07,0 -0.11,-0.01 -0.23,-0.02 -0.35,-0.03 -0.02,0 -0.03,0 -0.05,-0.01 -0.14,-0.01 -0.23,-0.01 -0.36,-0.02 -0.02,0 -0.03,0 -0.05,-0.01 -0.12,0 -0.25,-0.01 -0.37,-0.02 -0.02,0 -0.01,0 -0.03,-0.01 -0.68,-0.05 -1.31,-0.09 -1.99,-0.14 -0.01,0 -0.02,0 -0.03,0 -0.12,-0.01 -0.25,-0.02 -0.37,-0.03 -0.02,0 -0.03,0 -0.05,0 -0.12,-0.01 -0.23,-0.02 -0.35,-0.02 -0.03,-0.01 -0.05,-0.01 -0.07,-0.01 -0.12,-0.01 -0.24,-0.01 -0.36,-0.02 -0.02,0 -0.03,0 -0.05,-0.01 -0.12,0 -0.24,-0.01 -0.36,-0.02 -0.02,0 -0.03,0 -0.05,0 -0.66,-0.05 -1.33,-0.09 -1.99,-0.13 h -0.02 c -0.12,-0.01 -0.24,-0.02 -0.36,-0.03 -0.02,0 -0.05,0 -0.07,0 -0.12,-0.01 -0.22,-0.01 -0.34,-0.02 -0.03,0 -0.05,0 -0.08,-0.01 -0.1,0 -0.23,-0.01 -0.34,-0.02 -0.02,0 -0.05,0 -0.08,0 -0.12,-0.01 -0.23,-0.01 -0.35,-0.02 -0.01,0 -0.02,0 -0.03,0 -0.66,-0.04 -1.31,-0.08 -1.97,-0.12 -0.03,0 -0.04,0 -0.07,0 -0.11,-0.01 -0.2,-0.01 -0.32,-0.02 -0.04,0 -0.07,0 -0.11,0 -0.1,-0.01 -0.2,-0.01 -0.3,-0.02 -0.05,0 -0.08,0 -0.13,-0.01 -0.1,0 -0.2,-0.01 -0.3,-0.01 -0.04,-0.01 -0.09,-0.01 -0.13,-0.01 -0.08,0 -0.2,-0.01 -0.28,-0.02 -0.06,0 -0.11,0 -0.16,0 -0.1,-0.01 -0.17,-0.01 -0.27,-0.02 -0.06,0 -0.11,0 -0.17,-0.01 -0.08,0 -0.17,-0.01 -0.26,-0.01 -0.04,0 -0.08,0 -0.12,-0.01 -0.2,-0.01 -0.38,-0.01 -0.59,-0.02 -0.04,-0.01 -0.09,-0.01 -0.13,-0.01 -0.08,-0.01 -0.17,-0.01 -0.25,-0.01 -0.06,-0.01 -0.13,-0.01 -0.18,-0.01 -0.07,-0.01 -0.16,-0.01 -0.23,-0.01 -0.08,-0.01 -0.14,-0.01 -0.22,-0.01 -0.08,-0.01 -0.14,-0.01 -0.23,-0.01 -0.05,-0.01 -0.13,-0.01 -0.19,-0.01 -0.08,-0.01 -0.16,-0.01 -0.25,-0.02 -0.06,0 -0.12,0 -0.18,0 -0.08,-0.01 -0.17,-0.01 -0.26,-0.02 -0.05,0 -0.11,0 -0.16,0 -0.09,-0.01 -0.18,-0.01 -0.27,-0.01 -0.05,-0.01 -0.09,-0.01 -0.15,-0.01 -0.36,-0.02 -0.7,-0.03 -1.06,-0.05 -0.02,0 -0.03,0 -0.05,0 -0.08,0 -0.18,-0.01 -0.26,-0.01 -0.07,0 -0.12,0 -0.19,-0.01 -0.08,0 -0.16,0 -0.24,-0.01 -0.06,0 -0.13,0 -0.18,0 -0.09,-0.01 -0.17,-0.01 -0.25,-0.01 -0.07,-0.01 -0.13,-0.01 -0.19,-0.01 -0.07,-0.01 -0.18,-0.01 -0.24,-0.01 -0.07,0 -0.14,-0.01 -0.2,-0.01 -0.09,0 -0.15,-0.01 -0.23,-0.01 -0.07,0 -0.15,0 -0.22,-0.01 -0.07,0 -0.15,0 -0.22,0 -0.07,-0.01 -0.13,-0.01 -0.2,-0.01 -0.08,-0.01 -0.16,-0.01 -0.24,-0.01 -0.05,0 -0.08,0 -0.13,-0.01 -0.19,0 -0.34,-0.01 -0.53,-0.01 -0.07,-0.01 -0.12,-0.01 -0.19,-0.01 -0.08,0 -0.13,-0.01 -0.22,-0.01 -0.07,0 -0.14,0 -0.22,-0.01 -0.06,0 -0.15,0 -0.21,0 -0.08,-0.01 -0.15,-0.01 -0.22,-0.01 -0.09,0 -0.14,-0.01 -0.23,-0.01 -0.06,0 -0.14,0 -0.21,-0.01 -0.07,0 -0.15,0 -0.22,0 -0.07,0 -0.15,-0.01 -0.22,-0.01 -0.09,0 -0.14,0 -0.23,-0.01 -0.06,0 -0.12,0 -0.19,0 -0.07,0 -0.18,-0.01 -0.25,-0.01 -0.06,0 -0.1,0 -0.15,0 -0.11,-0.01 -0.18,-0.01 -0.29,-0.01 -0.02,0 -0.03,0 -0.05,0 -0.2,-0.01 -0.41,-0.02 -0.62,-0.02 -0.06,0 -0.11,-0.01 -0.17,-0.01 -0.08,0 -0.15,0 -0.23,0 -0.07,-0.01 -0.14,-0.01 -0.21,-0.01 -0.06,0 -0.14,0 -0.21,0 -0.08,-0.01 -0.16,-0.01 -0.24,-0.01 -0.05,0 -0.13,0 -0.18,-0.01 -0.09,0 -0.18,0 -0.27,0 -0.06,0 -0.12,-0.01 -0.19,-0.01 -0.08,0 -0.15,0 -0.23,0 -0.07,0 -0.14,-0.01 -0.21,-0.01 -0.08,0 -0.16,0 -0.23,0 -0.07,0 -0.14,-0.01 -0.21,-0.01 -0.09,0 -0.17,0 -0.26,0 -0.07,-0.01 -0.11,-0.01 -0.18,-0.01 -0.07,0 -0.16,0 -0.24,0 -0.15,-0.01 -0.27,-0.01 -0.42,-0.01 -0.07,0 -0.13,0 -0.2,-0.01 -0.07,0 -0.14,0 -0.21,0 -0.08,0 -0.15,0 -0.23,-0.01 -0.07,0 -0.13,0 -0.2,0 -0.08,0 -0.17,0 -0.25,0 -0.05,0 -0.14,-0.01 -0.19,-0.01 -0.08,0 -0.16,0 -0.24,0 -0.07,0 -0.14,0 -0.21,-0.01 -0.08,0 -0.17,0 -0.24,0 -0.05,0 -0.14,0 -0.2,0 -0.08,0 -0.17,-0.01 -0.25,-0.01 -0.07,0 -0.12,0 -0.19,0 -0.08,0 -0.18,0 -0.25,0 -0.07,-0.01 -0.13,-0.01 -0.2,-0.01 -0.07,0 -0.13,0 -0.21,0 -0.12,0 -0.26,0 -0.38,-0.01 -0.09,0 -0.18,0 -0.28,0 -0.03,0 -0.09,0 -0.12,0 -0.1,0 -0.23,0 -0.32,-0.01 -0.05,0 -0.11,0 -0.16,0 -0.1,0 -0.19,0 -0.29,0 -0.05,0 -0.11,0 -0.16,0 -0.09,0 -0.18,0 -0.27,-0.01 -0.07,0 -0.12,0 -0.19,0 -0.09,0 -0.18,0 -0.27,0 -0.06,0 -0.11,0 -0.16,0 -0.1,0 -0.19,0 -0.29,0 -0.05,-0.01 -0.11,-0.01 -0.16,-0.01 -0.11,0 -0.24,0 -0.35,0 -0.01,0 -0.07,0 -0.08,0 -0.15,0 -0.28,0 -0.42,0 -0.04,0 -0.06,0 -0.09,0 -0.13,0 -0.27,-0.01 -0.39,-0.01 -0.04,0 -0.09,0 -0.13,0 -0.09,0 -0.21,0 -0.31,0 -0.05,0 -0.12,0 -0.17,0 -0.1,0 -0.17,0 -0.27,0 -0.05,0 -0.14,0 -0.19,0 -0.09,0 -0.16,0 -0.25,0 -0.07,0 -0.12,0 -0.19,0 -0.1,0 -0.18,0 -0.28,0 -0.05,0 -0.11,0 -0.16,0 -0.1,-0.01 -0.18,-0.01 -0.28,-0.01 -0.05,0 -0.12,0 -0.17,0 -0.1,0 -0.23,0 -0.33,0 -0.04,0 -0.07,0 -0.1,0 -0.15,0 -0.31,0 -0.45,0 v 0"
         style="fill:#0a483e;fill-opacity:1;fill-rule:nonzero;stroke:none"
         id="path230" /><path
         d="m 3412.46,3354.7 c 0,-198.88 -161.23,-360.11 -360.12,-360.11 -198.89,0 -360.12,161.23 -360.12,360.11 0,198.89 161.23,360.12 360.12,360.12 198.89,0 360.12,-161.23 360.12,-360.12"
         style="fill:#26b6a6;fill-opacity:1;fill-rule:nonzero;stroke:none"
         id="path232" /><path
         d="m 3051.82,2994.59 c -0.05,0 -0.07,0 -0.12,0 0.03,0 0.08,0 0.12,0 m -1.17,0 c -0.04,0 -0.07,0 -0.12,0 0.05,0 0.08,0 0.12,0 m -0.59,0 c -0.03,0 -0.06,0 -0.08,0 0.02,0 0.05,0 0.08,0 m -0.56,0.01 c -0.04,0 -0.1,0 -0.15,0 0.05,0 0.11,0 0.15,0 m -0.58,0 c -0.05,0 -0.09,0 -0.14,0 0.04,0 0.1,0 0.14,0 m -0.57,0.01 c -0.06,0 -0.11,0 -0.17,0 0.05,0 0.11,0 0.17,0 m -0.56,0 c -0.07,0 -0.13,0.01 -0.2,0.01 0.07,0 0.13,-0.01 0.2,-0.01 m -0.59,0.01 c -0.07,0 -0.13,0 -0.2,0 0.07,0 0.14,0 0.2,0 m -0.55,0.01 c -0.08,0 -0.16,0 -0.24,0 0.08,0 0.16,0 0.24,0 m -0.6,0.01 c -0.07,0 -0.16,0 -0.23,0 0.08,0 0.15,0 0.23,0 m -0.49,0.01 c -0.14,0 -0.3,0 -0.44,0.01 0.15,-0.01 0.29,-0.01 0.44,-0.01 m -0.64,0.01 c -0.1,0 -0.2,0 -0.29,0.01 0.09,-0.01 0.19,-0.01 0.29,-0.01 m -0.46,0.01 c -0.2,0 -0.42,0.01 -0.62,0.01 0.2,0 0.42,-0.01 0.62,-0.01 m -0.67,0.01 c -0.13,0.01 -0.23,0.01 -0.37,0.01 0.13,0 0.24,0 0.37,-0.01 m -0.4,0.01 c -194.76,4.75 -351.17,164.11 -351.17,360.01 0,123.14 61.8,231.84 156.08,296.78 0,-0.02 0.01,-0.09 0.02,-0.11 -2.16,-1.49 -4.3,-2.99 -6.43,-4.53 -9.75,-219.95 177,-434.48 124.81,-506.59 -19.32,-26.67 -48.83,-37.51 -80.66,-37.51 -54.86,0 -116.6,32.19 -144.95,70.93 61,-104.66 173.19,-175.82 302.3,-178.98"
         style="fill:#0b7465;fill-opacity:1;fill-rule:nonzero;stroke:none"
         id="path234" /><path
         d="m 3052.34,2994.59 c -0.18,0 -0.35,0 -0.52,0 0.17,0 0.35,0 0.52,0 79.83,0 153.59,25.97 213.29,69.93 v 0 c -59.7,-43.96 -133.46,-69.93 -213.29,-69.93 m -0.64,0 c -0.35,0 -0.7,0 -1.05,0 0.34,0 0.71,0 1.05,0 m -1.17,0 c -0.16,0 -0.32,0 -0.47,0 0.15,0 0.31,0 0.47,0 m -0.55,0 c -0.17,0 -0.31,0 -0.48,0.01 0.16,-0.01 0.32,-0.01 0.48,-0.01 m -0.63,0.01 c -0.14,0 -0.28,0 -0.43,0 0.15,0 0.29,0 0.43,0 m -0.57,0 c -0.14,0 -0.28,0.01 -0.43,0.01 0.15,0 0.29,-0.01 0.43,-0.01 m -0.6,0.01 c -0.13,0 -0.26,0 -0.39,0 0.12,0 0.26,0 0.39,0 m -0.59,0.01 c -0.14,0 -0.25,0 -0.39,0 0.12,0 0.27,0 0.39,0 m -0.59,0 c -0.11,0.01 -0.24,0.01 -0.35,0.01 0.11,0 0.24,0 0.35,-0.01 m -0.59,0.01 c -0.13,0.01 -0.24,0.01 -0.36,0.01 0.12,0 0.23,0 0.36,-0.01 m -0.59,0.01 c -0.08,0 -0.18,0.01 -0.26,0.01 0.1,0 0.16,-0.01 0.26,-0.01 m -0.7,0.02 c -0.07,0 -0.13,0 -0.2,0 0.06,0 0.14,0 0.2,0 m -0.49,0.01 c -0.06,0 -0.11,0 -0.17,0 0.06,0 0.1,0 0.17,0 m -0.79,0.01 c -0.02,0 -0.03,0 -0.05,0 0.01,0 0.04,0 0.05,0 m -0.42,0.01 c 0,0 -0.02,0 -0.03,0 h 0.03"
         style="fill:#a7a9a8;fill-opacity:1;fill-rule:nonzero;stroke:none"
         id="path236" /><path
         d="m 3052.34,2994.59 c -0.17,0 -0.35,0 -0.52,0 -0.04,0 -0.09,0 -0.12,0 -0.34,0 -0.71,0 -1.05,0 -0.04,0 -0.07,0 -0.12,0 -0.16,0 -0.32,0 -0.47,0 -0.03,0 -0.06,0 -0.08,0 -0.16,0 -0.32,0 -0.48,0.01 -0.04,0 -0.1,0 -0.15,0 -0.14,0 -0.28,0 -0.43,0 -0.04,0 -0.1,0 -0.14,0 -0.14,0 -0.28,0.01 -0.43,0.01 -0.06,0 -0.12,0 -0.17,0 -0.13,0 -0.27,0 -0.39,0 -0.07,0 -0.13,0.01 -0.2,0.01 -0.12,0 -0.27,0 -0.39,0 -0.06,0 -0.13,0 -0.2,0 -0.11,0.01 -0.24,0.01 -0.35,0.01 -0.08,0 -0.16,0 -0.24,0 -0.13,0.01 -0.24,0.01 -0.36,0.01 -0.08,0 -0.15,0 -0.23,0 -0.1,0 -0.16,0.01 -0.26,0.01 -0.15,0 -0.29,0 -0.44,0.01 -0.06,0 -0.14,0 -0.2,0 -0.1,0 -0.2,0 -0.29,0.01 -0.07,0 -0.11,0 -0.17,0 -0.2,0 -0.42,0.01 -0.62,0.01 -0.01,0 -0.04,0 -0.05,0 -0.13,0.01 -0.24,0.01 -0.37,0.01 h -0.03 c -129.11,3.16 -241.3,74.32 -302.3,178.98 28.35,-38.74 90.09,-70.93 144.95,-70.93 31.83,0 61.34,10.84 80.66,37.51 52.19,72.11 -134.56,286.64 -124.81,506.59 2.13,1.54 4.27,3.04 6.43,4.53 27.39,-197.6 142.2,-367.22 304.12,-468.64 50.3,-31.51 105.14,-56.44 163.33,-73.57 -5.65,-6.05 -11.49,-11.9 -17.54,-17.56 -10.31,-9.64 -21.2,-18.69 -32.6,-27.08 -59.7,-43.96 -133.46,-69.93 -213.29,-69.93"
         style="fill:#0a483e;fill-opacity:1;fill-rule:nonzero;stroke:none"
         id="path238" /><path
         d="m 4163.31,3742.98 c 0,-364.86 -295.77,-660.63 -660.63,-660.63 -364.85,0 -660.63,295.77 -660.63,660.63 0,364.86 295.78,660.63 660.63,660.63 364.86,0 660.63,-295.77 660.63,-660.63"
         style="fill:#26b6a6;fill-opacity:1;fill-rule:nonzero;stroke:none"
         id="path240" /><path
         d="m 3502.68,3082.35 c -128.65,0 -248.71,36.77 -350.24,100.38 101.53,-63.6 221.59,-100.35 350.24,-100.35 312.92,0 574.83,217.55 643.04,509.65 -120.45,-127.11 -290.71,-206.64 -479.69,-206.64 -364.79,0 -660.59,295.8 -660.59,660.67 0,51.96 6.21,102.4 17.46,150.83 45.15,47.68 97.28,88.65 154.76,121.24 -116.8,-66.09 -211.46,-166.71 -270.12,-288.02 106.85,221.03 333.19,373.5 595.14,373.5 364.86,0 660.63,-295.77 660.63,-660.63 0,-153.3 -52.2,-294.38 -139.82,-406.48 -110.08,-140.83 -276.04,-235.89 -464.53,-251.79 -18.54,-1.56 -37.33,-2.36 -56.28,-2.36"
         style="fill:#0b7465;fill-opacity:1;fill-rule:nonzero;stroke:none"
         id="path242" /><path
         d="m 2848.3,3651.48 c -4.14,29.9 -6.28,60.43 -6.28,91.48 0,102.91 23.54,200.33 65.52,287.15 -41.97,-86.82 -65.49,-184.23 -65.49,-287.13 v 0 0 c 0,-31.05 2.14,-61.58 6.28,-91.48 -0.01,-0.01 -0.02,-0.02 -0.03,-0.02"
         style="fill:#a7a9a8;fill-opacity:1;fill-rule:nonzero;stroke:none"
         id="path244" /><path
         d="m 2848.32,3651.37 c -0.01,0.02 -0.02,0.09 -0.02,0.11 0.01,0 0.02,0.01 0.03,0.02 0.01,-0.04 0.01,-0.07 0.02,-0.11 -0.02,0 -0.02,-0.01 -0.03,-0.02"
         style="fill:#0a483e;fill-opacity:1;fill-rule:nonzero;stroke:none"
         id="path246" /><path
         d="m 3152.44,3182.73 c -161.92,101.42 -276.73,271.04 -304.12,468.64 0.01,0.01 0.01,0.02 0.03,0.02 27.41,-197.57 142.2,-367.24 304.09,-468.66"
         style="fill:#082d26;fill-opacity:1;fill-rule:nonzero;stroke:none"
         id="path248" /><path
         d="m 3502.68,3082.38 c -128.65,0 -248.71,36.75 -350.24,100.35 -186.43,116.79 -310.39,324.04 -310.39,560.25 0,102.9 23.52,200.31 65.49,287.13 58.66,121.31 153.32,221.93 270.12,288.02 -57.48,-32.59 -109.61,-73.56 -154.76,-121.24 -11.25,-48.43 -17.46,-98.87 -17.46,-150.83 0,-364.87 295.8,-660.67 660.59,-660.67 188.98,0 359.24,79.53 479.69,206.64 -68.21,-292.1 -330.12,-509.65 -643.04,-509.65"
         style="fill:#0a483e;fill-opacity:1;fill-rule:nonzero;stroke:none"
         id="path250" /><path
         d="m 973.762,4072.04 -97.407,-56.24 c 0.481,4.36 0.821,8.67 0.821,12.9 v 28.22 c 0,50.21 -35.254,70.57 -78.746,45.46 -17.614,-10.17 -33.813,-26.28 -46.934,-45.13 -7.121,63.14 -56.664,86.67 -116.836,51.93 -65.058,-37.57 -117.808,-128.93 -117.808,-204.05 v -42.22 c 0,-19.46 3.605,-35.84 9.976,-48.91 l -80.91,-46.7 c -24.125,-13.94 -43.676,-47.81 -43.676,-75.66 0,-27.85 19.551,-39.14 43.676,-25.22 l 527.844,304.75 c 24.121,13.93 43.678,47.8 43.678,75.65 0,27.86 -19.557,39.15 -43.678,25.22"
         style="fill:#e7e8e5;fill-opacity:1;fill-rule:nonzero;stroke:none"
         id="path252" /><path
         d="m 1490.76,3805.28 -71.4,-41.22 c 0.35,3.19 0.6,6.35 0.6,9.45 v 20.69 c 0,36.81 -25.85,51.73 -57.73,33.32 -12.91,-7.45 -24.79,-19.26 -34.41,-33.08 -5.22,46.29 -41.54,63.53 -85.65,38.06 -47.7,-27.53 -86.36,-94.5 -86.36,-149.58 v -30.95 c 0,-14.27 2.64,-26.28 7.31,-35.85 l -59.31,-34.24 c -17.69,-10.22 -32.02,-35.04 -32.02,-55.46 0,-20.42 14.33,-28.7 32.02,-18.49 l 386.95,223.4 c 17.68,10.22 32.02,35.05 32.02,55.47 0,20.41 -14.34,28.69 -32.02,18.48"
         style="fill:#e7e8e5;fill-opacity:1;fill-rule:nonzero;stroke:none"
         id="path254" /><path
         d="m 2662.82,2863.16 c -15.98,-30.93 -33.58,-48.53 -33.58,-48.53 2.35,14.6 3.51,21.24 2.59,29.27 -1.82,15.97 -13.36,20.71 -19.13,20.52 -4.49,-0.15 -3.23,-11.25 -10.27,-27.98 -9.01,-21.38 -20.55,-30.74 -24.27,-55.55 -1.4,-9.25 -5.91,-17.82 -13.09,-23.81 -38.75,-32.27 -113.9,-64.11 -169.22,-82.71 0,0 -67.15,82.21 -96.5,120.19 -32.62,42.23 -96.15,132.51 -168.48,118.79 0,0 -23.66,-54.21 -14.55,-96.13 5.9,-27.19 51.98,-78.6 93.79,-120.22 36.44,-36.27 131.88,-137.5 172.56,-148.07 16.76,-4.35 47.05,11.02 109.77,52.06 l -0.03,0.02 c 31.06,19.56 65.47,42.63 102.59,67.13 26.78,17.67 56.36,44.48 75.07,61.53 64.96,59.18 74.31,96.07 58.97,130.54 -24.49,55.03 -44.56,44.88 -66.22,2.95"
         style="fill:#c35363;fill-opacity:1;fill-rule:nonzero;stroke:none"
         id="path256" /><path
         d="m 1509.11,1994.82 c -8.71,10.8 -14.79,16.87 -25.65,20.35 -10.86,3.47 -46.47,1.73 -62.1,-23.02 -15.64,-24.75 -15.2,-54.81 -24.76,-73.44 -9.55,-18.63 -26.49,-35.53 -42.12,-50.1 -15.64,-14.57 -32.59,-55.14 -23.34,-92.48 5.93,-23.94 23.02,-32.64 37.5,-37.37 l 140.47,256.06"
         style="fill:#ededeb;fill-opacity:1;fill-rule:nonzero;stroke:none"
         id="path258" /><path
         d="m 1499.72,2000.85 c -16.01,5.1 -48.03,1.53 -64.78,-18.89 -14.53,-17.71 -14.11,-43.84 -22.11,-64.53 -4.47,-11.6 -12.04,-18.66 -19.44,-28.17 -8.45,-10.88 -18.76,-20.25 -26.34,-31.81 -6.08,-9.28 -10.2,-19.72 -13.29,-30.38 -3.38,-11.67 -5.56,-23.83 -4.75,-35.96 1.26,-18.86 11.57,-37.44 27.24,-48.11 16.17,-11 38.35,-12.85 50.6,4.71 4.46,6.41 7.16,13.85 10.27,21.02 5.41,12.45 12.62,28.96 22.81,38.28 9.61,8.78 17.8,20.17 28.21,28.15 1.65,1.27 3.28,2.72 4.94,3.8 18.69,12.31 37.97,23.1 39.78,30.62 1.8,7.53 3.26,93.49 3.26,93.49 -10.19,2.85 -20.38,32.69 -36.4,37.78"
         style="fill:#17282f;fill-opacity:1;fill-rule:nonzero;stroke:none"
         id="path260" /><path
         d="m 1359.73,1843.77 c 0,0 21.2,1.45 45.35,-13.29 24.16,-14.74 35.48,-32.91 37.4,-49.83 0,0 -3.41,-26.32 -12.42,-36.56 -9.01,-10.24 -27.02,-21.7 -61.42,-5.33 0,0 -46.49,40.51 -8.91,105.01"
         style="fill:#fafaf9;fill-opacity:1;fill-rule:nonzero;stroke:none"
         id="path262" /><path
         d="m 1567.6,1966.31 -50.26,-2.52 c 0,0 -7.46,0.94 -21.51,-4.46 -14.05,-5.41 -32.09,-45.86 -16.97,-56.67 4.42,-3.16 8.22,-7.3 7.73,-13.12 9.24,5.44 25.19,-1.61 34.53,-8.09 4.34,-3.01 6.72,-6.65 7.69,-10.34 0,0 11.72,1.63 15.41,2.05 10.96,1.28 22.16,0 32.95,-2.05 l -9.57,95.2"
         style="fill:#c35363;fill-opacity:1;fill-rule:nonzero;stroke:none"
         id="path264" /><path
         d="m 2339.76,1296.81 c -5.05,-1.2 -5.45,-20.86 -3.44,-26.47 2,-5.62 9.62,-17.22 21.25,-25.66 11.64,-8.43 20.85,-18.86 30.88,-36.91 7.12,-12.82 26.26,-39.95 51.73,-56.79 25.48,-16.85 60.97,-21.41 94.65,-12.19 33.69,9.23 37.61,17.96 37.86,30.64 l -232.93,127.38"
         style="fill:#ededeb;fill-opacity:1;fill-rule:nonzero;stroke:none"
         id="path266" /><path
         d="m 2444.85,1365.86 c 5.43,-13.58 23.08,-71.14 57.5,-99.16 27.37,-22.28 64.42,-47.7 74.94,-73.66 10.95,-27 -47.33,-39.56 -71.9,-36.62 -28.54,3.4 -66,17.38 -87.28,40.71 -14.96,16.4 -25.01,36.27 -35.76,49.23 -10.75,12.95 -34.63,26.75 -40.92,42.09 -3.45,8.42 -0.98,27.44 2.29,43.58 3.01,14.81 6.25,31.09 11.31,30 0.1,-1.78 0.5,-9 0.5,-9 6.36,-6.3 89.32,12.83 89.32,12.83"
         style="fill:#17282f;fill-opacity:1;fill-rule:nonzero;stroke:none"
         id="path268" /><path
         d="m 2455.03,1339.11 c -4.41,13.08 -9,26.41 -10.8,35.16 -3.06,14.99 -6.37,28.26 -8.25,47.18 -2.03,20.42 -8.76,83.71 -8.76,83.71 l -87.46,-30.55 c 2.5,-19.29 6.5,-35.3 10.58,-58.78 2.35,-13.54 4.37,-23.94 4.64,-39.63 0.09,-5.45 -0.35,-16.21 0,-21.62 0.22,-3.63 2.56,-5.13 4.92,-7.49 3.95,-3.95 5.88,-8.58 8.03,-13.64 1.13,-2.7 2.48,-5.62 5.13,-6.87 2.01,-0.95 4.34,-0.72 6.55,-0.58 6.57,0.42 16.73,1.62 19.98,-5.66 0,0 0.59,10.28 9.78,17.11 10.21,7.56 37.68,20.76 45.66,1.66"
         style="fill:#c35363;fill-opacity:1;fill-rule:nonzero;stroke:none"
         id="path270" /><path
         d="m 2443.19,1177.37 c 0,0 11.34,45.06 54.62,61.07 43.28,16.01 57.13,-3.23 63.19,-8.42 6.06,-5.19 35.49,-32.89 11.69,-60.59 0,0 -65.11,-44.71 -129.5,7.94"
         style="fill:#fafaf9;fill-opacity:1;fill-rule:nonzero;stroke:none"
         id="path272" /><path
         d="m 2250.43,2417.7 c 40.63,-109.21 130.4,-363.89 142.92,-451.56 12.53,-87.68 39.79,-517.08 39.79,-517.08 -8.16,-20.08 -62.31,-27.28 -88.79,-11.06 0,0 -69.74,202.02 -82.87,267.75 -15.37,76.94 1.69,142.21 1.69,142.21 0,0 -141.28,260.72 -197.11,363.01 0,0 -56.68,-293.06 -81.86,-338.77 -20.21,-36.68 -31.59,-60.03 -115.81,-52.19 -84.89,7.91 -309.48,52.08 -309.48,52.08 -11.03,10.22 -21.46,72.59 -0.68,94.49 45.5,7.39 176.52,15.54 208.29,13.16 52.37,-3.95 84.28,-30.93 84.28,-30.93 0,0 -37.31,228.18 -39.86,305.4 -3.47,104.95 32.45,177.26 32.45,177.26 l 407.04,-13.77"
         style="fill:#273e47;fill-opacity:1;fill-rule:nonzero;stroke:none"
         id="path274" /><path
         d="m 2066.06,2210.97 c 0,0 59.61,12.8 96.34,50.42 0,0 -17.49,-37.62 -55.98,-64.73 l 138.33,-312.13 -178.69,326.44"
         style="fill:#17282f;fill-opacity:1;fill-rule:nonzero;stroke:none"
         id="path276" /><path
         d="m 1968.78,3288.41 c 0,0 -29.95,45.37 -91.73,38.69 -71.59,-7.74 -93.08,-50.71 -157.5,-27.75 -51.53,18.36 -60.57,74.06 -42.17,116.23 0,0 -39.1,-4.6 -56.73,-49.84 -17.64,-45.24 -15.34,-97.38 14.56,-141.08 29.91,-43.7 102.82,-68.09 147.98,-61.34 91.19,13.65 124.98,91.82 161.78,76.96 l 23.81,48.13"
         style="fill:#17282f;fill-opacity:1;fill-rule:nonzero;stroke:none"
         id="path278" /><path
         d="m 2076.84,2977.91 h -31.88 c -92.74,0 -167.91,75.17 -167.91,167.91 v 0 c 0,93.24 75.58,168.82 168.82,168.82 h 30.06 c 93.24,0 168.82,-75.59 168.82,-168.82 v 0 c 0,-92.74 -75.17,-167.91 -167.91,-167.91"
         style="fill:#17282f;fill-opacity:1;fill-rule:nonzero;stroke:none"
         id="path280" /><path
         d="m 1997.86,2909.82 v 0 c -82.15,-5.65 -87.91,-45.32 -108.47,-88.71 -15.65,-33.03 0.98,-52.33 4.43,-104.15 3.46,-51.83 38.91,-168.74 38.91,-168.74 0,0 -58.22,-55.53 -89.34,-116.75 143.5,-93.58 347.53,-70.38 407.04,-13.77 -7.12,34.52 -24.87,87.74 -37.14,122.68 0,0 11.89,65.94 17.81,98.3 38.57,49.16 35.85,81.94 25.18,123.89 -19.82,77.88 -96.75,153.76 -130.79,150.99 l -127.63,-3.74"
         style="fill:#26b6a6;fill-opacity:1;fill-rule:nonzero;stroke:none"
         id="path282" /><path
         d="m 1980.34,3334.04 -11.56,-45.63 c -12.96,2.83 -20.87,15.35 -17.68,27.95 3.2,12.6 16.28,20.51 29.24,17.68"
         style="fill:#17282f;fill-opacity:1;fill-rule:nonzero;stroke:none"
         id="path284" /><path
         d="m 2184.35,3240.28 c 19.43,-11.47 43.43,-60.32 41.06,-162.71 -2.01,-86.78 -30.14,-108.22 -44.26,-114.4 -14.13,-6.18 -41.37,-2.42 -67.85,2 v -52.08 c 0,0 36.6,-42.51 34.29,-66.4 -2.3,-23.88 -52.84,-29.53 -87.09,-6.19 -34.25,23.33 -56.21,69.51 -56.21,69.51 v 112.55 c 0,0 -17.88,-21.2 -47.12,-1.78 -29.24,19.42 -30.35,67.48 -13.35,84.74 17,17.26 53.64,11.79 60.47,-12.05 0,0 42.23,-1.54 98.48,29.35 56.24,30.9 77.84,83.82 81.58,117.46"
         style="fill:#c35363;fill-opacity:1;fill-rule:nonzero;stroke:none"
         id="path286" /><path
         d="m 2118.8,3099.37 c 0.31,-6.25 -4.31,-11.55 -10.33,-11.84 -6.02,-0.28 -11.15,4.55 -11.47,10.8 -0.31,6.26 4.31,11.56 10.33,11.85 6.02,0.28 11.16,-4.56 11.47,-10.81"
         style="fill:#17282f;fill-opacity:1;fill-rule:nonzero;stroke:none"
         id="path288" /><path
         d="m 2131.43,3025.81 25.35,-8.09 c -2.11,-7.25 -9.48,-11.32 -16.49,-9.09 -7,2.23 -10.96,9.92 -8.86,17.18"
         style="fill:#aa3b4b;fill-opacity:1;fill-rule:nonzero;stroke:none"
         id="path290" /><path
         d="m 2208.28,3132.88 -22.08,15.3 c 4.02,6.31 12.23,8 18.33,3.77 6.1,-4.23 7.77,-12.77 3.75,-19.07"
         style="fill:#17282f;fill-opacity:1;fill-rule:nonzero;stroke:none"
         id="path292" /><path
         d="m 2203.19,3107.26 c 0.31,-6.25 -4.32,-11.55 -10.33,-11.84 -6.03,-0.28 -11.15,4.56 -11.48,10.81 -0.31,6.25 4.32,11.55 10.34,11.84 6.01,0.28 11.15,-4.55 11.47,-10.81"
         style="fill:#17282f;fill-opacity:1;fill-rule:nonzero;stroke:none"
         id="path294" /><path
         d="m 2149.88,3113.51 1.74,-65.69 34.58,10.71 z"
         style="fill:#aa3b4b;fill-opacity:1;fill-rule:nonzero;stroke:none"
         id="path296" /><path
         d="m 2113.3,2965.17 c -27.91,3.66 -85.32,20.15 -94.27,42.85 0,0 2.98,-14.27 20.13,-28.97 17.15,-14.69 74.14,-31.26 74.14,-31.26 v 17.38"
         style="fill:#aa3b4b;fill-opacity:1;fill-rule:nonzero;stroke:none"
         id="path298" /><path
         d="m 2077.99,2375.07 c -33.97,7.67 -55.43,20.26 -55.43,20.26 14.72,1.42 21.44,1.96 28.98,4.87 14.99,5.8 16.67,18.16 15.03,23.69 -1.27,4.31 -11.7,0.29 -29.67,2.89 -22.95,3.33 -34.92,12.14 -59.87,9.48 -9.3,-0.98 -18.73,1.23 -26.34,6.67 -41,29.37 -90.75,94.06 -122.7,142.9 l 85.63,122.49 c 0,0 46.23,7.93 65.54,54.16 12.28,29.38 27.82,95.02 -14.52,142.32 0,0 -30.6,6.92 -68.87,-12.45 -24.82,-12.57 -62.96,-70.12 -92.69,-121.07 -25.92,-44.41 -99.82,-162.28 -99.79,-204.32 0.01,-17.31 22.52,-42.75 78.04,-93.09 l 0.01,0.04 c 26.76,-25.14 57.76,-52.62 90.82,-82.37 23.85,-21.46 57.26,-43.33 78.48,-57.14 73.63,-47.94 111.7,-47.69 141.19,-24.15 47.07,37.57 32.19,54.43 -13.84,64.82"
         style="fill:#c35363;fill-opacity:1;fill-rule:nonzero;stroke:none"
         id="path300" /><path
         d="m 1272.77,2148.23 c 35.79,2.42 79.35,12.19 106.94,18.46 95.8,21.75 125.24,52.48 129.32,94.47 6.52,67.01 -18.6,68.21 -62.77,39.37 -32.6,-21.28 -59.41,-28.7 -59.41,-28.7 10.32,12.92 15.11,18.73 18.65,27.05 7.03,16.53 -1.58,27.51 -7.3,30.5 -4.44,2.33 -9.35,-9.16 -25.43,-21.55 -20.53,-15.83 -36.91,-18.56 -54.22,-40.65 -6.45,-8.22 -18.97,-28.84 -53.26,-31.78 l 7.48,-87.17"
         style="fill:#f6879f;fill-opacity:1;fill-rule:nonzero;stroke:none"
         id="path302" /><path
         d="m 878.805,2003.62 c -25.492,-82.6 -39.2,-221.69 -43.387,-333.08 -3.25,-86.31 -2.566,-151.47 -2.566,-151.47 0,0 -24.555,29.89 -84.438,37.95 -54.769,7.37 -230.516,-9.78 -230.516,-9.78 0,0 -85.867,-43.42 -33.765,-103.24 49.203,-10.61 159.043,-41.04 219.379,-59.68 48.523,-15.01 152.386,-44.85 183.91,-44.52 46.082,0.48 90.687,13.43 125.228,75.6 34.54,62.17 89.09,312.6 89.09,312.6 0,0 148.71,-259.45 165.98,-288.81 0,0 6.83,-35.49 4.04,-85.65 -2.97,-53.54 1.03,-107.77 18.31,-159.58 17.26,-51.82 37.96,-132.94 51.35,-192.4 10.85,-48.201 18.34,-72.751 19.5,-99.392 1.16,-26.637 62.59,31.113 102.31,70.832 0,0 -4.67,409.17 -11.58,481.71 -6.91,72.53 -13.89,149.12 -65.71,257.93 -51.81,108.8 -88.45,233.58 -107.12,285.71 -18.66,52.13 -400.015,5.27 -400.015,5.27"
         style="fill:#f6879f;fill-opacity:1;fill-rule:nonzero;stroke:none"
         id="path304" /><path
         d="m 878.805,2003.62 c 0,0 -34.723,-86.36 -43.746,-189.59 -9.016,-103.24 -10.02,-250.57 -10.02,-250.57 0,0 14.031,-65.72 116.266,-78.47 102.235,-12.74 114.255,32.36 114.255,32.36 l 49.11,195.29 126.62,-228.22 c 0,0 115.97,-15.64 205.18,116.66 -3.8,52.79 -151.59,363.43 -157.3,402.54 -7.01,0 -400.365,0 -400.365,0"
         style="fill:#26b6a6;fill-opacity:1;fill-rule:nonzero;stroke:none"
         id="path306" /><path
         d="m 1231.29,1484.42 -126.62,228.22 c 0,0 61.04,22.83 104.18,79.92 0,0 -11.04,-66.74 -43.14,-97.69 l 65.58,-210.45"
         style="fill:#1db3a0;fill-opacity:1;fill-rule:nonzero;stroke:none"
         id="path308" /><path
         d="m 1169.67,2548.96 c 44.29,7.26 91.05,0.19 105.74,-45.97 17.06,-53.65 -28.31,-167.43 -28.31,-167.43 l -77.43,213.4"
         style="fill:#f6879f;fill-opacity:1;fill-rule:nonzero;stroke:none"
         id="path310" /><path
         d="m 936.164,2537.89 c -24.957,-11.02 -86.281,-50.82 -71.437,-143.74 15.773,-98.76 34.695,-265.87 34.695,-265.87 1.844,-30.66 -15.488,-66.49 -24.442,-125.04 56.989,-62 344.57,-132.69 407.98,-5.38 0,0 4.27,264.42 -16.87,404.3 -12.85,84.98 -33.01,146.61 -115.17,148.45 l -139.45,8.09 c 0,0 -49.997,-9.63 -75.306,-20.81"
         style="fill:#26b6a6;fill-opacity:1;fill-rule:nonzero;stroke:none"
         id="path312" /><path
         d="m 1123.95,1926.87 c -100.93,0.01 -215.27,39.71 -248.97,76.37 8.497,55.57 24.547,90.68 24.575,120.33 0.004,1.58 -0.039,3.15 -0.133,4.71 0,0 -18.922,167.11 -34.695,265.87 -1.567,9.8 -2.282,19.01 -2.286,27.66 -0.027,73.34 51.399,106.22 73.723,116.08 25.309,11.18 75.306,20.81 75.306,20.81 l 139.45,-8.09 c 82.16,-1.84 102.32,-63.47 115.17,-148.45 15.05,-99.58 17.22,-262.28 17.22,-347.76 0,-34.59 -0.35,-56.54 -0.35,-56.54 -25.91,-52.03 -89.25,-70.99 -159.01,-70.99"
         style="fill:#0b7465;fill-opacity:1;fill-rule:nonzero;stroke:none"
         id="path314" /><path
         d="m 1027.94,2782.4 c 0,-63.71 51.65,-115.37 115.37,-115.37 63.72,0 115.37,51.66 115.37,115.37 0,63.72 -51.65,115.37 -115.37,115.37 -63.72,0 -115.37,-51.65 -115.37,-115.37"
         style="fill:#17282f;fill-opacity:1;fill-rule:nonzero;stroke:none"
         id="path316" /><path
         d="m 954.547,2713.51 c 0,0 17.695,-83.14 24.789,-96.8 7.098,-13.66 21.764,-17.54 21.764,-17.54 l -1.241,58.48 -45.312,55.86"
         style="fill:#17282f;fill-opacity:1;fill-rule:nonzero;stroke:none"
         id="path318" /><path
         d="m 976.754,2832.61 c 0,0 -19.059,3.26 -33.914,-11.93 -14.567,-14.89 -6.434,-61.52 11.707,-107.17 l 33.332,-3.83 -11.125,122.93"
         style="fill:#17282f;fill-opacity:1;fill-rule:nonzero;stroke:none"
         id="path320" /><path
         d="m 997.871,2709.65 c -6.68,-3.99 -16.215,8.85 -24.457,17.47 -8.242,8.63 -35.152,20.41 -48.574,-7.87 -13.676,-28.82 11.851,-66.91 33.031,-73.56 36.512,-11.45 41.988,11.96 41.988,11.96 l 2.791,-131.68 c 31.46,-35.15 139.06,-26.76 118.77,3.48 l -0.1,40.08 c 0,0 33.08,-5.02 49.21,-2.53 26.85,4.15 43.74,25.33 51.88,54.4 13.08,46.68 18.05,84.36 6.96,176.16 -12.17,100.62 -129.2,101.67 -192.4,61.89 -63.193,-39.78 -39.099,-149.8 -39.099,-149.8"
         style="fill:#f6879f;fill-opacity:1;fill-rule:nonzero;stroke:none"
         id="path322" /><path
         d="m 997.879,2698.41 c -3.367,-0.07 -16.149,21.15 -24.465,28.71 -11.527,10.5 3.34,105.49 3.34,105.49 0,0 -11.078,23.61 11.125,48.04 15.791,17.38 42.181,19.31 87.251,26.4 23.64,3.71 59.49,10.33 83.09,14.72 28.19,5.24 51.53,10.79 71.44,-6.51 15.49,-13.46 22.16,-37.25 13.82,-56.01 -1.96,-4.4 -4.79,-8.37 -8.01,-11.95 -5.71,-6.34 -12.16,-11.34 -20.29,-13.98 0,0 -12.29,-10.9 -55.06,-16.11 -42.76,-5.2 -109.37,1 -118.48,2.25 -12.4,1.7 -15.05,-10.32 -21.73,-43.16 -5.87,-28.82 -10.74,-77.67 -22.031,-77.89"
         style="fill:#17282f;fill-opacity:1;fill-rule:nonzero;stroke:none"
         id="path324" /><path
         d="m 1121.32,2569.53 c 0,0 -59.93,12.07 -80.88,23.21 -14.03,7.45 -25.58,20.37 -28.97,28.66 0,0 3.93,-17.79 16.46,-33.8 15.32,-19.59 93.41,-28.9 93.41,-28.9 l -0.02,10.83"
         style="fill:#f47089;fill-opacity:1;fill-rule:nonzero;stroke:none"
         id="path326" /><path
         d="m 1106.92,2724.64 c 0,-6.9 -5.38,-12.47 -12.01,-12.45 -6.64,0.02 -12.01,5.62 -12.01,12.51 0,6.9 5.37,12.47 12.01,12.45 6.63,-0.02 12.01,-5.62 12.01,-12.51"
         style="fill:#17282f;fill-opacity:1;fill-rule:nonzero;stroke:none"
         id="path328" /><path
         d="m 1087.63,2774.36 -25.7,-14.18 c -3.78,7.38 -1.1,16.54 5.99,20.45 7.1,3.92 15.92,1.11 19.71,-6.27"
         style="fill:#17282f;fill-opacity:1;fill-rule:nonzero;stroke:none"
         id="path330" /><path
         d="m 1115.89,2641.67 27.42,-10.28 c -2.71,-7.86 -11.05,-11.93 -18.63,-9.09 -7.56,2.84 -11.5,11.52 -8.79,19.37"
         style="fill:#f47089;fill-opacity:1;fill-rule:nonzero;stroke:none"
         id="path332" /><path
         d="m 1217.09,2763.79 -23.43,18.05 c 4.78,6.7 13.9,8.1 20.37,3.12 6.47,-4.98 7.84,-14.46 3.06,-21.17"
         style="fill:#17282f;fill-opacity:1;fill-rule:nonzero;stroke:none"
         id="path334" /><path
         d="m 1206.8,2728.06 c 0,-6.9 -5.38,-12.46 -12.01,-12.45 -6.63,0.02 -12.01,5.62 -12.01,12.51 0,6.89 5.38,12.47 12.01,12.45 6.63,-0.02 12.01,-5.62 12.01,-12.51"
         style="fill:#17282f;fill-opacity:1;fill-rule:nonzero;stroke:none"
         id="path336" /><path
         d="m 1147.45,2737.69 1.39,-72.82 43.05,9.48 z"
         style="fill:#f47089;fill-opacity:1;fill-rule:nonzero;stroke:none"
         id="path338" /><path
         d="m 425.758,1579.04 c -9.703,12.03 -16.481,18.81 -28.578,22.68 -12.102,3.87 -51.789,1.94 -69.215,-25.65 -17.422,-27.59 -16.938,-61.08 -27.586,-81.85 -10.645,-20.76 -29.524,-39.59 -46.949,-55.83 -17.422,-16.24 -36.313,-61.46 -26.008,-103.06 6.609,-26.68 25.66,-36.39 41.797,-41.65 l 156.539,285.36"
         style="fill:#ededeb;fill-opacity:1;fill-rule:nonzero;stroke:none"
         id="path340" /><path
         d="m 415.305,1585.77 c -17.848,5.68 -53.539,1.7 -72.2,-21.05 -16.187,-19.75 -15.734,-48.87 -24.636,-71.93 -4.996,-12.92 -13.426,-20.79 -21.672,-31.39 -9.418,-12.12 -20.91,-22.56 -29.356,-35.45 -6.769,-10.34 -11.371,-21.98 -14.808,-33.85 -3.77,-13.01 -6.199,-26.57 -5.297,-40.08 1.402,-21.03 12.894,-41.73 30.359,-53.61 18.02,-12.26 42.735,-14.33 56.387,5.24 4.981,7.14 7.977,15.44 11.445,23.42 6.032,13.88 14.071,32.28 25.43,42.66 10.707,9.79 19.832,22.48 31.426,31.38 1.844,1.41 3.656,3.03 5.508,4.24 20.836,13.71 42.32,25.73 44.336,34.12 2.011,8.4 3.632,104.19 3.632,104.19 -11.351,3.17 -22.707,36.43 -40.554,42.11"
         style="fill:#17282f;fill-opacity:1;fill-rule:nonzero;stroke:none"
         id="path342" /><path
         d="m 259.285,1410.71 c 0,0 23.621,1.61 50.547,-14.82 26.922,-16.42 39.539,-36.68 41.672,-55.52 0,0 -3.801,-29.35 -13.84,-40.76 -10.035,-11.4 -30.113,-24.18 -68.445,-5.93 0,0 -51.809,45.14 -9.934,117.03"
         style="fill:#fafaf9;fill-opacity:1;fill-rule:nonzero;stroke:none"
         id="path344" /><path
         d="m 561.984,1551.12 -127.05,-6.66 c 0,0 -8.317,1.05 -23.969,-4.98 -15.656,-6.02 -35.77,-51.11 -18.914,-63.15 4.922,-3.51 9.16,-8.13 8.621,-14.62 10.293,6.06 28.066,-1.79 38.48,-9.01 4.825,-3.35 7.489,-7.41 8.559,-11.52 0,0 7.141,1.09 17.734,1.4 10.016,0.3 42.184,-4.69 54.2,-6.97 l 42.339,115.51"
         style="fill:#f6879f;fill-opacity:1;fill-rule:nonzero;stroke:none"
         id="path346" /><path
         d="m 1343.79,787.121 c -6.09,-1.449 -6.57,-25.121 -4.15,-31.883 2.41,-6.758 11.59,-20.738 25.6,-30.886 14,-10.172 25.11,-22.723 37.19,-44.461 8.58,-15.45 31.62,-48.121 62.31,-68.411 30.68,-20.281 73.42,-25.781 113.99,-14.671 40.57,11.113 45.29,21.632 45.59,36.902 l -280.53,153.41"
         style="fill:#ededeb;fill-opacity:1;fill-rule:nonzero;stroke:none"
         id="path348" /><path
         d="m 1470.35,870.289 c 6.55,-16.359 27.8,-85.68 69.26,-119.43 32.96,-26.828 77.58,-57.449 90.26,-88.711 13.18,-32.519 -57.02,-47.648 -86.6,-44.109 -34.37,4.102 -79.49,20.93 -105.11,49.031 -18.03,19.75 -30.14,43.692 -43.09,59.289 -12.94,15.602 -41.7,32.211 -49.27,50.692 -4.16,10.148 -1.19,33.058 2.75,52.5 3.62,17.828 7.53,37.429 13.62,36.121 0.14,-2.141 0.61,-10.84 0.61,-10.84 7.67,-7.582 107.57,15.457 107.57,15.457"
         style="fill:#17282f;fill-opacity:1;fill-rule:nonzero;stroke:none"
         id="path350" /><path
         d="m 1482.61,838.07 c -5.31,15.75 -10.84,31.809 -12.99,42.34 -3.7,18.059 -4.61,36.039 -5.51,58.93 -1.47,37.582 -1.85,123.87 -1.85,123.87 l -118.47,-61.95 c 3.01,-23.229 8.64,-41.729 13.56,-70.022 2.84,-16.297 4.45,-29.59 4.76,-48.508 0.1,-6.55 -0.42,-19.511 0,-26.031 0.27,-4.367 3.08,-6.168 5.93,-9.019 4.77,-4.758 7.08,-10.328 9.66,-16.43 1.37,-3.25 3,-6.77 6.19,-8.281 2.42,-1.129 5.22,-0.86 7.89,-0.688 7.9,0.5 20.15,1.949 24.06,-6.82 0,0 0.71,12.391 11.78,20.598 12.29,9.121 45.38,25.011 54.99,2.011"
         style="fill:#f6879f;fill-opacity:1;fill-rule:nonzero;stroke:none"
         id="path352" /><path
         d="m 1468.35,643.27 c 0,0 13.66,54.269 65.79,73.558 52.13,19.281 68.81,-3.887 76.11,-10.137 7.29,-6.261 42.74,-39.621 14.07,-72.98 0,0 -78.41,-53.852 -155.97,9.559"
         style="fill:#fafaf9;fill-opacity:1;fill-rule:nonzero;stroke:none"
         id="path354" /><path
         d="m 1065.5,1941.2 c -37.97,8.57 -61.96,22.65 -61.96,22.65 16.45,1.58 23.96,2.19 32.39,5.45 16.76,6.47 18.65,20.29 16.81,26.48 -1.43,4.82 -13.09,0.33 -33.18,3.23 -25.658,3.72 -39.033,13.57 -66.931,10.6 -10.395,-1.09 -20.941,1.37 -29.445,7.46 -45.84,32.83 -101.457,105.16 -137.176,159.77 l 95.738,136.93 c 0,0 51.672,8.87 73.27,60.56 13.722,32.84 28.492,110.67 -18.852,163.56 0,0 -31.598,3.29 -74.379,-18.37 -27.746,-14.05 -70.39,-78.4 -103.633,-135.36 -28.976,-49.64 -111.597,-181.43 -111.57,-228.42 0.016,-19.36 25.176,-47.8 87.254,-104.09 l 0.019,0.05 c 29.911,-28.1 64.571,-58.82 101.536,-92.08 26.66,-24 64.011,-48.44 87.73,-63.89 82.329,-53.59 124.879,-53.31 157.849,-27 52.63,42 35.99,60.86 -15.47,72.47"
         style="fill:#f6879f;fill-opacity:1;fill-rule:nonzero;stroke:none"
         id="path356" /></g></g></svg>
